<svg width="192" height="390" viewBox="0 0 192 390" fill="none" xmlns="http://www.w3.org/2000/svg">
<rect x="-1.5" y="-1.5" width="189" height="189" rx="11.5" transform="translate(3 3)" stroke="#BDBDBD" stroke-width="3"/>
<rect x="1.5" y="1.5" width="173.4" height="173.4" rx="2.5" transform="translate(7.80078 7.79883)" stroke="#BDBDBD" stroke-width="3"/>
<circle cx="56.5541" cy="56.5541" r="56.5541" transform="translate(39.4453 39.4453)" fill="#404040"/>
<path d="M7 20H0C0 20 0.5 15.5 2 11C3.5 6.5 7 0 7 0V20Z" transform="translate(42.5 68)" fill="white"/>
<path d="M7 20H0C0 20 0.5 15.5 2 11C3.5 6.5 7 0 7 0V20Z" transform="translate(150 123) rotate(180)" fill="white"/>
<path d="M7 20H0C0 20 0.5 15.5 2 11C3.5 6.5 7 0 7 0V20Z" transform="translate(149 68) scale(-1 1)" fill="white"/>
<path d="M7 20H0C0 20 0.5 15.5 2 11C3.5 6.5 7 0 7 0V20Z" transform="translate(43 124) scale(1 -1)" fill="white"/>
<path d="M5 0L0 34" transform="translate(72 110)" stroke="#202020" stroke-width="3"/>
<path d="M5 0L0 29" transform="translate(115.5 48)" stroke="#202020" stroke-width="3"/>
<path d="M6 0L0 31" transform="translate(77 48) scale(-1 1)" stroke="#202020" stroke-width="3"/>
<path d="M8.96685 0V22H0" transform="translate(41 66)" stroke="#BDBDBD" stroke-width="3"/>
<circle cx="56.5541" cy="56.5541" r="54.0541" transform="translate(39.4453 39.4453)" stroke="#BDBDBD" stroke-width="5"/>
<path d="M8.96685 0V22H0" transform="translate(41 125) scale(1 -1)" stroke="#BDBDBD" stroke-width="3"/>
<path d="M8.96685 0V22H0" transform="translate(151 125) rotate(180)" stroke="#BDBDBD" stroke-width="3"/>
<path d="M8.96685 0V22H0" transform="translate(151 66) scale(-1 1)" stroke="#BDBDBD" stroke-width="3"/>
<path d="M0 0C3.87097 0.888889 12.8903 4.13333 18 10" transform="translate(83 73)" stroke="#202020" stroke-width="3"/>
<path d="M29 19C30.1485 8 23.9586 0 15.0786 0C6.19864 0 0 7.61116 0 17C0 26.3888 6.19864 34 15.0786 34" transform="translate(98 89)" stroke="#202020" stroke-width="3"/>
<path d="M51.5 24.5C51.5 24.5 48.625 17 47 13.5C40.5 -0.499997 30.2696 0.00225098 19.5 0.00225098C8.73045 0.00225098 0 10.5236 0 23.5023C0 36.4809 3.5 46.5 25 50.5L35 52" transform="translate(72.5 70)" stroke="#202020" stroke-width="3"/>
<path d="M0 18.5342C0 24.8741 1.50284 30.0954 4.23101 34.1402M6.11146 0C3.09585 3.66056 0.978915 8.65494 0.264828 14.2994" transform="matrix(0.97844 0.20653 -0.15308 0.988214 83.2266 80)" stroke="#202020" stroke-width="3"/>
<path d="M0 15.3417C0 20.5895 1.25203 24.9115 3.5249 28.2596M5.09152 0C2.57919 3.03003 0.815545 7.16413 0.220631 11.8363" transform="matrix(0.979451 0.201684 -0.149419 0.988774 91.0117 85.1738)" stroke="#202020" stroke-width="3"/>
<path d="M44.6651 0C39.6946 0 35.6651 5.14873 35.6651 11.5C35.6651 14.9059 36.8239 17.966 38.6651 20.0717C61.3368 46 74.3726 125 26.6651 235C17.7163 255.633 8.75511 274.636 0 292H19.9922C58.3249 217.819 73.0969 163.741 76.6651 114.5C80.6651 59.3 63.6919 20.0717 51.1305 3.5C49.4945 1.34163 47.2024 0 44.6651 0Z" transform="translate(69.8359 96)" fill="#404040"/>
<path d="M38.6651 20.0717L37.5359 21.0591L38.6651 20.0717ZM51.1305 3.5L52.3259 2.59389L51.1305 3.5ZM76.6651 114.5L75.169 114.392L76.6651 114.5ZM26.6651 235L25.289 234.403L25.289 234.403L26.6651 235ZM18.6596 291.311C18.2793 292.047 18.5676 292.952 19.3036 293.333C20.0395 293.713 20.9445 293.425 21.3248 292.689L18.6596 291.311ZM-1.33937 291.325C-1.71235 292.064 -1.41505 292.966 -0.675336 293.339C0.0643795 293.712 0.966396 293.415 1.33937 292.675L-1.33937 291.325ZM37.1651 11.5C37.1651 5.61396 40.8446 1.5 44.6651 1.5V-1.5C38.5445 -1.5 34.1651 4.68349 34.1651 11.5H37.1651ZM39.7943 19.0844C38.214 17.277 37.1651 14.5774 37.1651 11.5H34.1651C34.1651 15.2344 35.4338 18.655 37.5359 21.0591L39.7943 19.0844ZM44.6651 1.5C46.6392 1.5 48.5208 2.54023 49.9352 4.40611L52.3259 2.59389C50.4682 0.143036 47.7656 -1.5 44.6651 -1.5V1.5ZM49.9352 4.40611C62.2607 20.6667 79.1447 59.5282 75.169 114.392L78.1612 114.608C82.1856 59.0718 65.1232 19.4768 52.3259 2.59389L49.9352 4.40611ZM37.5359 21.0591C48.5319 33.6346 57.4284 59.4416 57.5573 96.0143C57.686 132.52 49.0722 179.566 25.289 234.403L28.0413 235.597C51.9655 180.434 60.6876 132.98 60.5573 96.0037C60.4272 59.0942 51.47 32.4371 39.7943 19.0844L37.5359 21.0591ZM75.169 114.392C71.619 163.383 56.9235 217.264 18.6596 291.311L21.3248 292.689C59.7262 218.375 74.575 164.099 78.1612 114.608L75.169 114.392ZM25.289 234.403C16.3518 255.01 7.40292 273.986 -1.33937 291.325L1.33937 292.675C10.1073 275.286 19.0808 256.257 28.0413 235.597L25.289 234.403Z" transform="translate(69.8359 96)" fill="#202020"/>
<rect width="24" height="2" transform="translate(68 388)" fill="white"/>
</svg>
