<svg width="25" height="25" viewBox="0 0 25 25" fill="none" xmlns="http://www.w3.org/2000/svg">
<path d="M24.4395 19.7738L20.5787 15.9038C19.8097 15.1361 18.5362 15.1594 17.7404 15.9573L15.7953 17.9064C15.6724 17.8385 15.5452 17.7676 15.4114 17.6924C14.1831 17.0103 12.5019 16.0753 10.7329 14.3009C8.95854 12.5228 8.02484 10.8352 7.34216 9.60332C7.27012 9.47281 7.2011 9.34698 7.13294 9.22748L8.4384 7.92101L9.08021 7.27695C9.87723 6.47791 9.89921 5.20188 9.132 4.43199L5.27113 0.56152C4.50392 -0.20729 3.22985 -0.183967 2.43282 0.615078L1.3447 1.71193L1.37444 1.74152C1.00957 2.20813 0.704683 2.7463 0.477793 3.32665C0.268644 3.87907 0.138428 4.40622 0.0788869 4.93445C-0.430915 9.1704 1.50041 13.0417 6.74179 18.2951C13.987 25.5561 19.8256 25.0076 20.0775 24.9808C20.6261 24.9151 21.1518 24.7837 21.6861 24.5758C22.2601 24.351 22.7967 24.0459 23.262 23.681L23.2858 23.7021L24.3881 22.6203C25.1835 21.8214 25.2064 20.5449 24.4395 19.7738Z" fill="currentColor"/>
</svg>
