<svg width="50" height="50" viewBox="0 0 50 50" fill="none" xmlns="http://www.w3.org/2000/svg">
<path d="M2.57149 0H45.4275C45.7767 0.00387498 46.1211 0.0821851 46.4375 0.229681C46.754 0.377177 47.0351 0.590452 47.2622 0.855216C47.7579 1.44563 48.0199 2.19662 47.9988 2.96653V11.9997H0.000135768V2.96653C-0.00696013 2.20233 0.264309 1.46156 0.763508 0.881941C0.985141 0.615629 1.26091 0.399302 1.57259 0.247266C1.88426 0.09523 2.57149 0 2.57149 0Z" transform="translate(1 4)" stroke="#F3930E" stroke-width="2" stroke-miterlimit="10"/>
<path d="M-1.02179e-07 1.11313e-06H48V1.62112C48 1.97759 47.9408 2.33042 47.8259 2.65863C47.71 2.98714 47.5416 3.28466 47.3304 3.53403C47.1141 3.78583 46.8594 3.98408 46.5804 4.11764C46.2988 4.25087 45.9987 4.31693 45.6964 4.31217H2.29018C1.68503 4.31371 1.10339 4.02861 0.669643 3.51782C0.458264 3.26915 0.290124 2.97179 0.17512 2.64327C0.060117 2.31475 0.000574964 1.9617 -1.02179e-07 1.60491V1.11313e-06Z" transform="translate(1 19.6875)" stroke="#F3930E" stroke-width="2" stroke-miterlimit="10"/>
<path d="M1.50004 2.99994C1.79624 2.99993 2.0858 2.91223 2.33222 2.7479C2.57865 2.58357 2.7709 2.34997 2.88476 2.07654C2.99861 1.8031 3.02896 1.50209 2.97199 1.21143C2.91501 0.920777 2.77326 0.653495 2.5646 0.443282C2.35594 0.233068 2.08971 0.0893338 1.79948 0.0301992C1.50925 -0.0289353 1.20801 -0.000822985 0.933731 0.110992C0.659454 0.222806 0.424421 0.413318 0.258261 0.658509C0.0921007 0.903701 0.00225215 1.1926 4.17515e-05 1.48878C-0.00143532 1.68669 0.0362729 1.88295 0.110993 2.06623C0.185714 2.2495 0.295969 2.41618 0.435404 2.55665C0.574839 2.69713 0.740697 2.80862 0.923419 2.8847C1.10614 2.96078 1.30211 2.99994 1.50004 2.99994Z" transform="translate(4 10)" fill="#F3930E"/>
<path d="M0 0V16.9996" transform="translate(25.2051 29)" stroke="#404040" stroke-width="2" stroke-miterlimit="10"/>
<path d="M0 0C1.45629 4.25092 4.00478 8.50184 6 9.99979" transform="translate(40 29)" stroke="#404040" stroke-width="2" stroke-miterlimit="10"/>
<path d="M0 0C1.8928 5.04172 5.20521 10.0834 7.79848 11.8601" transform="matrix(0.963215 0.268732 -0.236289 0.971683 32.998 29)" stroke="#404040" stroke-width="2" stroke-miterlimit="10"/>
<path d="M0 0C1.45629 4.25092 4.00478 8.50184 6 9.99979" transform="translate(10 29) scale(-1 1)" stroke="#404040" stroke-width="2" stroke-miterlimit="10"/>
<path d="M0 0C2.0809 4.9504 5.72248 9.90079 8.57347 11.6452" transform="matrix(-0.963218 0.26872 0.2363 0.97168 17.998 29)" stroke="#404040" stroke-width="2" stroke-miterlimit="10"/>
</svg>
