<svg width="30" height="40" viewBox="0 0 30 40" fill="none" xmlns="http://www.w3.org/2000/svg">
<path d="M15 0C18.9782 0 22.7936 1.475 25.6066 4.1005C28.4196 6.72601 30 10.287 30 14C30 24.5 15 40 15 40C15 40 0 24.5 0 14C0 10.287 1.58035 6.72601 4.3934 4.1005C7.20644 1.475 11.0218 0 15 0Z" fill="#333333"/>
<path fill-rule="evenodd" clip-rule="evenodd" d="M14.007 20.8376C14.7807 19.2404 14.5205 17.6456 14.079 16.0054C13.6376 14.3652 13.052 12.7082 12.6687 11.001C12.204 8.93041 11.9135 6.74982 12.348 4.64574C12.678 3.04855 13.4075 1.57091 13.9629 0.0526179C13.9884 -0.0167212 14.0256 -0.0119392 14.0349 0.0526179C14.2417 1.75468 14.5932 3.43481 15.0851 5.07373C15.422 6.16402 15.7961 7.24237 16.1679 8.32071C16.8859 10.4033 17.2019 12.5695 16.8649 14.7764C16.5141 17.0383 15.515 19.0468 14.1487 20.8328L14.1069 20.8854C13.9652 21.0695 13.9164 21.0145 14.0024 20.8424L14.007 20.8376ZM1.86483 20.8376C2.63857 19.2404 2.37833 17.6456 1.93686 16.0054C1.49539 14.3652 0.909866 12.7082 0.533455 11.001C0.0687507 8.93041 -0.221689 6.74982 0.215133 4.64574C0.545073 3.04855 1.27466 1.57091 1.83928 0.0502271C1.86483 -0.019112 1.90201 -0.01433 1.9113 0.0502271C2.11826 1.75227 2.46968 3.43239 2.96154 5.07133C3.29845 6.16163 3.67254 7.23997 4.0443 8.31832C4.76227 10.4009 5.07827 12.5671 4.74136 14.774C4.3905 17.0359 3.39139 19.0444 2.02516 20.8304L1.98333 20.883C1.83928 21.0624 1.78119 21.0098 1.86483 20.8376ZM7.97659 20.8376C8.75032 19.2404 8.49008 17.6456 8.04861 16.0054C7.60714 14.3652 7.02162 12.7082 6.63591 11.001C6.17121 8.93041 5.88077 6.74982 6.31527 4.64574C6.64521 3.04855 7.37479 1.57091 7.93011 0.0526179C7.95567 -0.0167212 7.99285 -0.0119392 8.00214 0.0526179C8.20899 1.75468 8.56041 3.43481 9.05238 5.07373C9.38929 6.16402 9.76337 7.24237 10.1351 8.32071C10.8531 10.4033 11.1691 12.5695 10.8322 14.7764C10.4813 17.0383 9.48223 19.0468 8.116 20.8328L8.07417 20.8854C7.93011 21.0624 7.88364 21.0098 7.96729 20.8376H7.97659Z" transform="translate(6 6)" fill="#F3930E"/>
</svg>
