<svg width="34" height="28" viewBox="0 0 34 28" fill="none" xmlns="http://www.w3.org/2000/svg">
<path d="M9.27338 -4.73257e-08L3.34725 0.00620317L2.69525e-07 9.81637L5.56403 9.82257L3.00281 19.3846L10.6453 6.8513L5.26375 6.89472L9.27338 -4.73257e-08Z" transform="translate(10.6445 5.38477)" fill="#BDBDBD"/>
<path d="M26.0431 0.0085674H19.4742L18.0342 2.39061L25.785 2.3748C28.0469 2.3748 29.1619 3.86793 29.1778 5.37687C29.1778 7.07878 27.9832 8.58773 25.7691 8.54028H0V10.9128H25.9634C26.7133 10.9654 27.4662 10.8649 28.1754 10.6173C28.8847 10.3698 29.5353 9.98049 30.0872 9.47353C30.639 8.96657 31.0804 8.35268 31.384 7.66975C31.6877 6.98682 31.8472 6.24934 31.8526 5.50283C31.8581 4.75632 31.7094 4.01662 31.4157 3.32939C31.1221 2.64215 30.6898 2.02197 30.1454 1.50712C29.601 0.992265 28.9561 0.593668 28.2505 0.335928C27.545 0.0781887 26.7937 -0.0332237 26.0431 0.0085674Z" transform="translate(1.14844 17.0723)" fill="#BDBDBD"/>
<path d="M13.5297 8.5412H5.46028C4.63134 8.52211 3.84339 8.1793 3.26731 7.58711C2.69123 6.99493 2.37346 6.2011 2.3829 5.37779C2.39301 4.5958 2.7056 3.84763 3.25593 3.28819C3.80626 2.72876 4.55218 2.40092 5.33923 2.37256H9.56028L10.3631 0H5.19587C3.80433 0.0745411 2.49337 0.671574 1.52859 1.67013C0.563811 2.66869 0.0173765 3.99409 -1.21525e-07 5.37779C-1.21525e-07 8.69937 2.81934 10.9011 5.17994 10.9011L12.9339 10.8442L13.5297 8.5412Z" transform="translate(0 8.54102)" fill="#BDBDBD"/>
<path d="M25.7691 0H0V2.36623H25.7245C27.8557 2.36623 29.1778 3.67588 29.1778 5.37779C29.1789 5.81253 29.0897 6.24281 28.9158 6.6418C28.742 7.04079 28.4872 7.39991 28.1673 7.69674C27.8475 7.99358 27.4694 8.22177 27.0568 8.36706C26.6442 8.51235 26.2058 8.57164 25.7691 8.5412H19.2671L17.9323 10.8758L25.8041 10.9074C28.8337 10.9074 31.4587 8.73733 31.5575 5.67515C31.6467 2.79329 29.5728 0 25.7691 0Z" transform="translate(1.14844)" fill="#BDBDBD"/>
</svg>
