<svg width="70" height="67" viewBox="0 0 70 67" fill="none" xmlns="http://www.w3.org/2000/svg">
<path fill-rule="evenodd" clip-rule="evenodd" d="M39.047 0.0353109C39.4845 -0.0623453 39.9376 0.0450766 40.2853 0.326327C40.6329 0.60367 40.836 1.02359 40.8321 1.4689V5.83609H50.9649C50.9884 5.83609 51.0118 5.83414 51.0392 5.83414C51.0665 5.83414 51.0938 5.83609 51.1173 5.83609H68.5431C69.3478 5.83609 70.0001 6.48844 70.0001 7.29312V16.0295V24.7658V33.5041V42.2423V50.9806V59.7189C70.0001 60.5236 69.3478 61.174 68.5431 61.174H51.0392H40.8321V65.5451C40.8321 65.6193 40.8282 65.6916 40.8165 65.7658C40.6954 66.5607 39.9493 67.1056 39.1524 66.9826L1.23838 61.1584C0.527439 61.049 9.54282e-05 60.4377 9.54282e-05 59.7189V10.2052C-0.00771707 9.52164 0.464939 8.92594 1.13291 8.77359L39.047 0.0353109ZM52.5001 58.2619H67.086V52.4357H52.5001V58.2619ZM67.086 49.5236V43.6974H52.5001V49.5236H67.086ZM67.086 40.7853V34.9591H52.5001V40.7853H67.086ZM67.086 32.047V26.2209H52.5001V32.047H67.086ZM67.086 23.3087V17.4845H52.5001V23.3087H67.086ZM67.086 14.5724V8.7482H52.5001V14.5724H67.086ZM49.5821 8.7482H40.8321V14.5724H49.5821V8.7482ZM40.8321 17.4845V23.3087H49.5821V17.4845H40.8321ZM40.8321 26.2209V32.047H49.5821V26.2209H40.8321ZM40.8321 34.9591V40.7853H49.5821V34.9591H40.8321ZM40.8321 43.6974V49.5236H49.5821V43.6974H40.8321ZM40.8321 52.4357H49.5821V58.2619H40.8321V52.4357ZM13.1251 46.6115C12.3165 46.6095 11.6681 45.9552 11.6681 45.1505C11.6681 44.8791 11.7462 44.6134 11.8907 44.383L18.6993 33.506L11.8868 22.6252C11.4376 21.9572 11.6173 21.0509 12.2892 20.6037C12.9571 20.1564 13.8634 20.3361 14.3126 21.0041L14.3595 21.0841L20.4181 30.7599L26.4728 21.0822C26.8751 20.3869 27.7696 20.1486 28.4649 20.5529C29.1642 20.9552 29.3985 21.8459 28.9962 22.5431L28.9454 22.6232L22.1368 33.506L28.9454 44.3849C29.3712 45.0666 29.1603 45.965 28.4767 46.3908C28.2462 46.5334 27.9806 46.6095 27.7071 46.6095C27.2032 46.6095 26.7384 46.3517 26.4728 45.9259L20.4181 36.2521L14.3634 45.924C14.0978 46.3517 13.629 46.6115 13.1251 46.6115Z" fill="#404040"/>
</svg>
