<svg width="50" height="50" viewBox="0 0 50 50" fill="none" xmlns="http://www.w3.org/2000/svg">
<path d="M0 -1.90628e-07C2.20697 0.899495 4.2133 2.39865 5.81837 4.19764C7.42344 5.99663 8.52692 8.1954 9.12882 10.5941" transform="translate(31.6191 14.6934)" stroke="#404040" stroke-width="2" stroke-miterlimit="10"/>
<path d="M-7.65356e-07 3.81256e-07C3.81203 1.29927 7.2228 3.69792 9.73072 6.89613C12.2386 10.0943 13.8437 13.8922 14.245 17.9899" transform="translate(32.4199 9.0957)" stroke="#404040" stroke-width="2" stroke-miterlimit="10"/>
<path d="M0.114475 13.2925C-0.186475 10.8939 0.114475 8.39529 0.917009 6.09658C1.71954 3.79787 3.02366 1.69905 4.82936 0" transform="translate(11.1387 15.4922)" stroke="#404040" stroke-width="2" stroke-miterlimit="10"/>
<path d="M0.405062 21.2881C-0.397472 17.2903 0.00379509 13.1926 1.50855 9.39473C3.0133 5.59686 5.62153 2.39865 8.93198 3.81256e-07" transform="translate(5.5332 9.59766)" stroke="#404040" stroke-width="2" stroke-miterlimit="10"/>
<path d="M13.8437 -7.62512e-07C11.9377 1.49916 9.63041 2.4986 7.2228 2.89837C4.8152 3.39809 2.30729 3.19821 7.65356e-07 2.59854" transform="translate(19.7812 39.2773)" stroke="#404040" stroke-width="2" stroke-miterlimit="10"/>
<path d="M22.6716 -7.62511e-07C19.6621 2.69848 15.85 4.39753 11.8374 4.99719C7.8247 5.59686 3.71172 4.99719 -3.82678e-07 3.29815" transform="translate(15.4688 42.7754)" stroke="#404040" stroke-width="2" stroke-miterlimit="10"/>
<path d="M2.14616 21.0882L0.240145 9.19484C-0.0608051 8.09546 -0.0608035 6.99607 0.13983 5.89669C0.340463 4.79731 0.842047 3.79787 1.54426 2.89837C2.24648 1.99888 3.14933 1.29927 4.1525 0.799551C5.15567 0.299832 6.15883 0 7.36263 0H7.56327C8.66675 0 9.66992 0.299832 10.6731 0.799551C11.6763 1.29927 12.5791 1.99888 13.181 2.89837C13.8832 3.79787 14.2845 4.79731 14.5854 5.89669C14.8864 6.99607 14.7861 8.09546 14.4851 9.19484L12.5791 21.0882" transform="translate(18.1348 2)" stroke="#F3930E" stroke-width="2" stroke-miterlimit="10"/>
<path d="M21.7938 8.99495L12.364 16.5907C11.5615 17.3902 10.5583 17.9899 9.55517 18.2897C8.45168 18.5896 7.3482 18.6895 6.24472 18.5896C5.14123 18.3897 4.03775 17.9899 3.1349 17.3902C2.23205 16.6906 1.52983 15.991 0.92793 14.9916L0.827613 14.7917C0.326029 13.7923 0.0250792 12.7928 0.0250792 11.6934C-0.0752375 10.5941 0.125396 9.49467 0.626979 8.49523C1.02825 7.49579 1.73046 6.5963 2.533 5.79675C3.33553 5.09714 4.3387 4.49748 5.44218 4.19764L16.6777 0" transform="translate(2 25.9863)" stroke="#F3930E" stroke-width="2" stroke-miterlimit="10"/>
<path d="M5.21647 0L16.4519 4.29759C17.5554 4.59742 18.5586 5.19708 19.3611 5.89669C20.1637 6.5963 20.8659 7.59573 21.2671 8.59517C21.6684 9.59461 21.869 10.7939 21.7687 11.8933C21.7687 12.9927 21.4678 13.9921 20.8659 14.9916L20.7656 15.1915C20.1637 16.091 19.4614 16.8905 18.5586 17.4902C17.6557 18.0898 16.5523 18.4896 15.4488 18.5896C14.3453 18.6895 13.2418 18.5896 12.1383 18.2897C11.0348 17.9899 10.132 17.3902 9.32946 16.5907L3.82678e-07 8.99495" transform="translate(27.2051 25.9863)" stroke="#F3930E" stroke-width="2" stroke-miterlimit="10"/>
<path d="M2.14616 21.0882L0.240145 9.19484C-0.0608051 8.09546 -0.0608035 6.99607 0.13983 5.89669C0.340463 4.79731 0.842047 3.79787 1.54426 2.89837C2.24648 1.99888 3.14933 1.29927 4.1525 0.799551C5.15567 0.299832 6.25915 0 7.36263 0" transform="translate(18.1348 2)" stroke="#F08D35" stroke-width="2" stroke-miterlimit="10"/>
<path d="M14.0443 6.99607C14.0443 10.8939 10.9345 13.9921 7.02217 13.9921C3.10982 13.9921 -3.82678e-07 10.8939 -3.82678e-07 6.99607C-3.82678e-07 3.09826 3.10982 0 7.02217 0C10.9345 0 14.0443 3.09826 14.0443 6.99607Z" transform="translate(18.4766 20.9883)" stroke="#F08D35" stroke-width="2" stroke-miterlimit="10"/>
<path d="M4.01267 1.99888C4.01267 3.09826 3.10982 3.99776 2.00633 3.99776C0.90285 3.99776 -3.82678e-07 3.09826 -3.82678e-07 1.99888C-3.82678e-07 0.899495 0.90285 0 2.00633 0C3.10982 0 4.01267 0.899495 4.01267 1.99888Z" transform="translate(23.4941 25.9863)" stroke="#F3930E" stroke-width="2" stroke-miterlimit="10"/>
<path d="M14.0443 6.99607C14.0443 10.8939 10.9345 13.9921 7.02217 13.9921C3.10982 13.9921 -3.82678e-07 10.8939 -3.82678e-07 6.99607C-3.82678e-07 3.09826 3.10982 0 7.02217 0C10.9345 0 14.0443 3.09826 14.0443 6.99607Z" transform="translate(18 21)" stroke="#F3930E" stroke-width="2" stroke-miterlimit="10"/>
</svg>
