<svg width="30" height="30" viewBox="0 0 30 30" fill="none" xmlns="http://www.w3.org/2000/svg">
<path d="M25.8585 19.8003C23.4232 22.7342 20.6446 23.3457 19.1491 23.4439C20.1875 23.0043 21.0994 22.3052 21.7998 21.4116C22.5002 20.518 22.9664 19.4591 23.1547 18.3334L23.1828 18.2732H23.1547C23.3867 16.8792 23.1676 15.4464 22.5303 14.1892C23.5575 9.91837 24.5066 3.29026 21.4345 0.65106C18.4716 -1.88676 14.9686 3.52472 14.1694 7.76075C17.9096 8.44193 19.8235 10.6122 20.6571 11.8605C19.7686 11.158 18.7172 10.6987 17.6036 10.5267C16.49 10.3548 15.3516 10.4758 14.2974 10.8784H14.2318V10.8942C12.933 11.3993 11.8219 12.3031 11.0535 13.4795C6.88863 14.731 0.759957 17.196 0.0512418 21.2134C-0.635619 25.0787 5.7397 25.4653 9.76095 24.049C8.46529 20.434 9.3426 17.6744 10.0076 16.3152C9.85052 17.4495 9.98468 18.6058 10.3971 19.672C10.8095 20.7383 11.4862 21.6785 12.3617 22.4015L12.3898 22.4427C13.4737 23.3289 14.8055 23.8455 16.1956 23.9191C19.3177 26.9575 24.5097 31.108 28.2968 29.7266C31.9372 28.4118 29.0867 22.6138 25.8585 19.8003ZM16.5983 14.6772C17.0923 14.6772 17.5752 14.8258 17.986 15.1043C18.3967 15.3828 18.7169 15.7787 18.9059 16.2418C19.0949 16.705 19.1444 17.2146 19.048 17.7063C18.9517 18.198 18.7138 18.6496 18.3645 19.0041C18.0152 19.3586 17.5701 19.6 17.0856 19.6978C16.6011 19.7956 16.0989 19.7454 15.6425 19.5535C15.1861 19.3617 14.7961 19.0368 14.5216 18.62C14.2472 18.2032 14.1007 17.7131 14.1007 17.2118C14.1007 16.5396 14.3638 15.8949 14.8322 15.4195C15.3006 14.9442 15.9359 14.6772 16.5983 14.6772Z" fill="currentColor"/>
</svg>
