<svg width="16" height="16" viewBox="0 0 16 16" fill="none" xmlns="http://www.w3.org/2000/svg">
<path fill-rule="evenodd" clip-rule="evenodd" d="M11.584 0H4.41602C1.98047 0 0 1.98047 0 4.41406V11.5859C0 14.0195 1.98047 16 4.41602 16H11.584C14.0195 16 16 14.0195 16 11.5859V4.41406C16 1.98047 14.0195 0 11.584 0ZM8 3.87891C5.72656 3.87891 3.87695 5.72656 3.87695 8C3.87695 10.2734 5.72656 12.125 8 12.125C10.2734 12.125 12.123 10.2734 12.123 8C12.123 5.72656 10.2734 3.87891 8 3.87891ZM8 10.7031C6.50977 10.7031 5.29688 9.49219 5.29688 8C5.29688 6.51172 6.50977 5.29688 8 5.29688C9.49023 5.29688 10.7031 6.51172 10.7031 8C10.7031 9.49219 9.49023 10.7031 8 10.7031ZM11.5605 2.97656C11.752 2.78125 12.0215 2.67188 12.2949 2.67188C12.5703 2.67188 12.8379 2.78125 13.0312 2.97656C13.2246 3.16797 13.3359 3.4375 13.3359 3.71484C13.3359 3.98828 13.2246 4.25391 13.0312 4.44922C12.8379 4.64062 12.5703 4.75391 12.2949 4.75391C12.0215 4.75391 11.752 4.64062 11.5605 4.44922C11.3652 4.25391 11.2539 3.98828 11.2539 3.71484C11.2539 3.4375 11.3652 3.16797 11.5605 2.97656Z" fill="currentColor"/>
</svg>
