<svg width="50" height="52" viewBox="0 0 50 52" fill="none" xmlns="http://www.w3.org/2000/svg">
<path d="M3.50002 2.4H5.83336C6.47773 2.4 7.00003 2.93723 7.00003 3.6H9.33338C9.33338 1.61175 7.76639 0 5.83336 0H3.50002C1.56699 0 0 1.61175 0 3.6C0 5.58825 1.56699 7.2 3.50002 7.2H5.83336C6.47773 7.2 7.00003 7.73723 7.00003 8.4C7.00003 9.06277 6.47773 9.6 5.83336 9.6H3.50002C2.85565 9.6 2.33334 9.06277 2.33334 8.4H0C0 10.3883 1.56699 12 3.50002 12H5.83336C7.76639 12 9.33338 10.3883 9.33338 8.4C9.33338 6.41175 7.76639 4.8 5.83336 4.8H3.50002C2.85565 4.8 2.33334 4.26277 2.33334 3.6C2.33334 2.93723 2.85572 2.4 3.50002 2.4Z" transform="translate(19.168 20)" fill="#404040"/>
<path d="M0 2.4H2.33334V9.6H0V12H7.00003V9.6H4.66669V2.4H7.00003V0H0V2.4Z" transform="translate(11 20)" fill="#404040"/>
<path d="M4.66669 0C2.08936 0 0 2.14905 0 4.8V7.2C0 9.85095 2.08936 12 4.66669 12C7.24401 12 9.33338 9.85095 9.33338 7.2V4.8C9.33338 2.14905 7.24401 0 4.66669 0ZM7.00003 7.2C7.00003 8.52547 5.95535 9.6 4.66669 9.6C3.37803 9.6 2.33334 8.52547 2.33334 7.2V4.8C2.33334 3.47452 3.37803 2.4 4.66669 2.4C5.95535 2.4 7.00003 3.47452 7.00003 4.8V7.2Z" transform="translate(29.668 20)" fill="#404040"/>
<path d="M12.0466 0C9.64555 0.895399 7.47904 2.31238 5.70731 4.14616C3.93557 5.97994 2.60393 8.18359 1.81087 10.5941C1.04703 12.6992 0.441847 14.8566 0 17.0486" transform="translate(12.7891 1.05469)" stroke="#F3930E" stroke-width="2" stroke-miterlimit="10"/>
<path d="M23.8392 0.000355075C20.0238 -0.02012 16.257 0.845117 12.8424 2.5263C9.42779 4.20748 6.46103 6.65755 4.18132 9.67896C2.33773 12.2543 0.925897 15.1059 1.08261e-07 18.1244" transform="translate(1 1.05078)" stroke="#F3930E" stroke-width="2" stroke-miterlimit="10"/>
<path d="M0 0C2.45279 0.890358 4.6734 2.31019 6.49984 4.15593C8.32629 6.00166 9.7125 8.22675 10.5574 10.6689C11.3191 12.7682 11.923 14.9194 12.3646 17.1052" transform="translate(24.8359 1)" stroke="#F3930E" stroke-width="2" stroke-miterlimit="10"/>
<path d="M-7.2174e-08 0.00102444C3.86347 -0.0338685 7.68177 0.823019 11.1505 2.50338C14.6193 4.18375 17.6426 6.64112 19.9795 9.67963C21.8231 12.255 23.2349 15.1066 24.1608 18.125" transform="translate(24.8359 1.05469)" stroke="#F3930E" stroke-width="2" stroke-miterlimit="10"/>
<path d="M19.5065 4.42824C15.8322 4.37093 12.1713 3.97686 8.57076 3.25111C5.52084 2.75008 2.6053 1.64414 3.6087e-08 -3.5638e-07" transform="translate(5.33203 10.5078)" stroke="#F3930E" stroke-width="2" stroke-miterlimit="10"/>
<path d="M-7.2174e-08 4.42824C3.67428 4.37093 7.33524 3.97686 10.9358 3.25111C13.9791 2.74766 16.888 1.6418 19.4876 -3.5638e-07" transform="translate(24.8359 10.5078)" stroke="#F3930E" stroke-width="2" stroke-miterlimit="10"/>
<path d="M0.158704 0L0 17.0486" transform="translate(24.6758 1.05469)" stroke="#F3930E" stroke-width="2" stroke-miterlimit="10"/>
<path d="M0 17.0493C2.40104 16.1539 4.56754 14.7369 6.33928 12.9031C8.11101 11.0693 9.44266 8.86567 10.2357 6.45512C10.9897 4.34901 11.5852 2.19143 12.0175 0" transform="translate(25.1602 33.8945)" stroke="#F3930E" stroke-width="2" stroke-miterlimit="10"/>
<path d="M7.2174e-08 18.1053C3.81376 18.128 7.57958 17.2656 10.994 15.5877C14.4085 13.9099 17.3762 11.4634 19.6579 8.44542C21.5015 5.87007 22.9133 3.01846 23.8392 -7.12759e-07" transform="translate(25.1602 32.8359)" stroke="#F3930E" stroke-width="2" stroke-miterlimit="10"/>
<path d="M12.3538 17.1053C9.90106 16.215 7.68045 14.7951 5.85401 12.9494C4.02757 11.1037 2.64135 8.87856 1.7965 6.43643C1.03838 4.33681 0.438018 2.18549 0 0" transform="translate(12.8086 33.8945)" stroke="#F3930E" stroke-width="2" stroke-miterlimit="10"/>
<path d="M24.1608 18.1053C20.299 18.1424 16.4817 17.2884 13.013 15.6113C9.54436 13.9343 6.52017 11.4805 4.18132 8.44542C2.33773 5.87007 0.925898 3.01846 1.08261e-07 -7.12759e-07" transform="translate(1 32.8359)" stroke="#F3930E" stroke-width="2" stroke-miterlimit="10"/>
<path d="M7.2174e-08 -2.85104e-07C3.67428 0.0573089 7.33524 0.451378 10.9358 1.17713C13.9725 1.683 16.8747 2.78877 19.4687 4.42824" transform="translate(25.1602 37.0625)" stroke="#F3930E" stroke-width="2" stroke-miterlimit="10"/>
<path d="M19.4876 -2.85104e-07C15.8157 0.0326934 12.1547 0.401738 8.55184 1.10239C5.50849 1.60584 2.59961 2.7117 -2.88696e-07 4.3535" transform="translate(5.67188 37.0625)" stroke="#F3930E" stroke-width="2" stroke-miterlimit="10"/>
<path d="M0 17.4338L0.16229 0" transform="translate(25.1602 33.5117)" stroke="#F3930E" stroke-width="2" stroke-miterlimit="10"/>
</svg>
