<svg width="160" height="57" viewBox="0 0 160 57" fill="none" xmlns="http://www.w3.org/2000/svg">
<path fill-rule="evenodd" clip-rule="evenodd" d="M33.5469 56.5592C35.7086 52.224 34.9816 47.8953 33.7481 43.4432C32.5147 38.9912 30.8787 34.4937 29.8076 29.8599C28.5092 24.2397 27.6978 18.3209 28.9117 12.6099C29.8336 8.27462 31.872 4.26389 33.4235 0.14282C33.4949 -0.0453858 33.5988 -0.0324061 33.6248 0.14282C34.2027 4.7627 35.1846 9.32306 36.5591 13.7715C37.5004 16.7309 38.5455 19.6579 39.5842 22.5848C41.5902 28.2375 42.4731 34.1173 41.5318 40.1074C40.5515 46.2468 37.76 51.6983 33.9429 56.5463L33.826 56.689C33.43 57.1887 33.2937 57.0395 33.5339 56.5722L33.5469 56.5592ZM5.21024 56.5592C7.372 52.224 6.64492 47.8953 5.41148 43.4432C4.17804 38.9912 2.54211 34.4937 1.49044 29.8599C0.192085 24.2397 -0.619387 18.3209 0.601068 12.6099C1.5229 8.27462 3.56132 4.26389 5.13883 0.136331C5.21024 -0.0518752 5.3141 -0.0388955 5.34007 0.136331C5.9183 4.75616 6.90015 9.31649 8.27436 13.765C9.21567 16.7244 10.2608 19.6514 11.2995 22.5783C13.3055 28.231 14.1884 34.1108 13.2471 40.1009C12.2668 46.2403 9.47534 51.6918 5.65817 56.5398L5.54132 56.6825C5.13883 57.1693 4.97653 57.0265 5.21024 56.5592ZM19.4922 56.5592C21.6539 52.224 20.9268 47.8953 19.6934 43.4432C18.46 38.9912 16.824 34.4937 15.7464 29.8599C14.448 24.2397 13.6366 18.3209 14.8505 12.6099C15.7724 8.27462 17.8108 4.26389 19.3623 0.14282C19.4337 -0.0453858 19.5376 -0.0324061 19.5636 0.14282C20.1415 4.76271 21.1233 9.32307 22.4979 13.7715C23.4392 16.7309 24.4843 19.6579 25.523 22.5848C27.529 28.2375 28.4119 34.1173 27.4706 40.1074C26.4903 46.2468 23.6988 51.6983 19.8817 56.5463L19.7648 56.689C19.3623 57.1693 19.2325 57.0265 19.4662 56.5592H19.4922Z" fill="#DC7D43"/>
<path fill-rule="evenodd" clip-rule="evenodd" d="M8.1411 18.879L14.8341 2.1157C15.1392 1.38234 15.7754 0.0194701 16.7297 0.0194701H22.4295L23.4357 0.9605V37.3038L22.4295 38.2448H16.3727L15.2821 37.3297V18.5091L8.31637 37.0052C8.21447 37.3579 8.00154 37.6683 7.70918 37.8905C7.41682 38.1126 7.06062 38.2346 6.69343 38.2383H1.07804C0.846411 38.2523 0.617071 38.1858 0.42886 38.0501C0.276612 37.9068 0.159367 37.7305 0.0861976 37.5346C0.0130284 37.3388 -0.0141048 37.1288 0.00689278 36.9209V0.94752L1.00014 4.95138e-08H7.05697L8.1411 0.934541V18.879Z" transform="translate(63.8633 9.29297)" fill="#413B53"/>
<path fill-rule="evenodd" clip-rule="evenodd" d="M15.7426 18.2365L15.801 18.282C16.3398 18.7038 16.8851 19.1386 17.398 19.5799C17.7303 19.8613 18.0366 20.1719 18.3133 20.508C18.884 21.3793 19.2787 22.3537 19.4754 23.3765C19.5597 23.9865 19.6182 24.6031 19.6636 25.2131C19.722 26.0244 19.748 26.8356 19.748 27.6468V30.3077C19.7091 30.5673 19.6723 30.8269 19.6376 31.0865C19.5987 31.3915 19.5403 31.69 19.4754 31.9886C18.3133 36.5964 15.0415 38.6212 10.3869 38.7575H7.51749C6.53723 38.7575 5.56995 38.7575 4.57671 38.6796C3.84963 38.6342 3.11606 38.5758 2.38898 38.4914C1.54505 38.3681 -3.16982e-06 38.0501 -3.16982e-06 36.9338V31.4045L0.305112 30.7879C0.388088 30.7215 0.490971 30.685 0.59724 30.6841C0.727076 30.6841 0.863403 30.6841 0.993239 30.6841C1.12307 30.6841 1.35029 30.6841 1.53206 30.6841C1.64159 30.6873 1.75045 30.7025 1.85665 30.7295C2.44091 30.8528 3.02517 30.9696 3.60943 31.0735C4.0249 31.1449 4.44687 31.2163 4.86884 31.2552H6.41388C9.52345 31.2552 11.0815 29.769 11.0815 26.6409C11.1161 25.8695 11.0128 25.0981 10.7764 24.363C10.27 23.065 9.43906 21.8838 7.95893 21.767C7.22752 21.6935 6.49611 21.6307 5.76471 21.5788C5.0333 21.5269 4.28674 21.5009 3.52504 21.5009H3.47959C3.20985 21.4795 2.95838 21.3562 2.7763 21.1561C2.59422 20.956 2.49519 20.6941 2.49934 20.4236V15.4069C2.48991 15.271 2.50953 15.1345 2.55691 15.0067C2.60429 14.8789 2.67834 14.7627 2.77413 14.6657C2.86992 14.5687 2.98527 14.4932 3.1125 14.4442C3.23973 14.3952 3.37593 14.3739 3.51206 14.3815L5.87506 14.2712C6.65841 14.2366 7.44175 14.1825 8.22509 14.109C9.97787 13.9208 10.5491 12.7007 10.5491 11.0522C10.6046 10.3642 10.4274 9.67751 10.0461 9.10211C9.6647 8.5267 9.10119 8.0959 8.44582 7.8787C8.06742 7.77974 7.68053 7.71672 7.29028 7.69049C6.69953 7.63857 6.10228 7.62559 5.51153 7.62559H3.56399C3.11606 7.69698 2.66812 7.76837 2.2137 7.82678C1.92539 7.86769 1.63492 7.89153 1.3438 7.89817C1.20534 7.91364 1.06517 7.89776 0.933686 7.8517C0.802201 7.80564 0.68277 7.73058 0.584254 7.63209C0.485737 7.5336 0.410659 7.41421 0.364585 7.28276C0.318511 7.15132 0.302621 7.01119 0.318098 6.87277V1.60949C0.318098 0.752825 1.49311 0.415352 2.15527 0.266085C2.47986 0.201186 2.80445 0.142778 3.13553 0.103838C3.35388 0.0827796 3.57069 0.0480982 3.78471 -5.94165e-07H10.2765C10.6595 0.0454285 11.0425 0.116818 11.4191 0.188206C11.9644 0.292044 12.5162 0.434821 13.0485 0.597067C15.8205 1.37585 17.6317 3.30334 18.7223 5.93174C18.9522 6.54203 19.1048 7.17864 19.1767 7.82678C19.2843 8.7052 19.3341 9.58971 19.326 10.4746C19.326 13.5898 18.4107 16.4064 15.84 18.2625" transform="translate(90.9062 8.99414)" fill="#413B53"/>
<path fill-rule="evenodd" clip-rule="evenodd" d="M7.29069 7.89184L6.98558 7.58682H1.0456C0.305537 7.58682 0.00691132 7.07412 0.00691132 6.38619V1.04503C-0.0128601 0.872428 0.00993955 0.697608 0.0733091 0.535837C0.136679 0.374066 0.23869 0.230263 0.37045 0.116981C0.491914 0.0377891 0.634456 -0.00292435 0.779435 0.000163552H22.1114C22.2564 -0.00252366 22.3988 0.0381569 22.5204 0.116981C22.6506 0.231279 22.751 0.375427 22.8132 0.537065C22.8754 0.698703 22.8975 0.873008 22.8775 1.04503V6.3797C22.8775 6.76261 22.819 7.29477 22.4425 7.50245C22.3392 7.5593 22.2229 7.58837 22.105 7.58682H15.8469L15.5872 7.88535V37.3299L14.4641 38.2644H8.41377L7.29069 37.3299V7.89184Z" transform="translate(137.113 9.29297)" fill="#413B53"/>
<path fill-rule="evenodd" clip-rule="evenodd" d="M7.29035 7.89184L6.98524 7.58682H1.04526C0.305193 7.58682 0.00656673 7.07412 0.00656673 6.38619V1.04503C-0.0126392 0.872468 0.010425 0.697821 0.0737569 0.536146C0.137089 0.374471 0.238787 0.230617 0.370105 0.116981C0.491737 0.0381569 0.634163 -0.00252366 0.779091 0.000163552H22.1111C22.2561 -0.00292435 22.3986 0.0377891 22.5201 0.116981C22.6518 0.230263 22.7539 0.374066 22.8172 0.535837C22.8806 0.697608 22.9034 0.872428 22.8836 1.04503V6.3797C22.8836 6.76261 22.8252 7.29477 22.4487 7.50245C22.3453 7.5593 22.229 7.58837 22.1111 7.58682H15.853L15.5933 7.88535V37.3299L14.4703 38.2644H8.41992L7.29685 37.3299L7.29035 7.89184Z" transform="translate(112.395 9.29297)" fill="#DC7D43"/>
<path d="M0.9478 0H0V55.3975H0.9478V0Z" transform="translate(52.4102 0.433594)" fill="#413B53"/>
</svg>
