<svg width="108" height="38" viewBox="0 0 108 38" fill="none" xmlns="http://www.w3.org/2000/svg">
<path fill-rule="evenodd" clip-rule="evenodd" d="M22.6441 37.7062C24.1033 34.816 23.6125 31.9302 22.78 28.9621C21.9474 25.9941 20.8431 22.9958 20.1201 19.9066C19.2437 16.1598 18.696 12.214 19.5154 8.40657C20.1377 5.51642 21.5136 2.84259 22.5609 0.0952135C22.6091 -0.0302572 22.6792 -0.0216041 22.6967 0.0952135C23.0868 3.17514 23.7496 6.21537 24.6774 9.18103C25.3127 11.1539 26.0182 13.1052 26.7193 15.0565C28.0734 18.825 28.6693 22.7448 28.0339 26.7383C27.3723 30.8312 25.488 34.4655 22.9114 37.6975L22.8326 37.7927C22.5653 38.1258 22.4732 38.0263 22.6354 37.7148L22.6441 37.7062ZM3.51691 37.7062C4.9761 34.816 4.48532 31.9302 3.65275 28.9621C2.82018 25.9941 1.71592 22.9958 1.00605 19.9066C0.129658 16.1598 -0.418086 12.214 0.405721 8.40657C1.02796 5.51642 2.40389 2.84259 3.46871 0.0908873C3.51691 -0.0345835 3.58702 -0.0259303 3.60455 0.0908873C3.99485 3.17078 4.6576 6.21099 5.58519 9.1767C6.22057 11.1496 6.92607 13.1009 7.62718 15.0522C8.9812 18.8206 9.57715 22.7405 8.94176 26.734C8.28009 30.8269 6.39585 34.4612 3.81926 37.6932L3.74039 37.7884C3.46871 38.1129 3.35916 38.0177 3.51691 37.7062ZM13.1572 37.7062C14.6164 34.816 14.1256 31.9302 13.293 28.9621C12.4605 25.9941 11.3562 22.9958 10.6288 19.9066C9.75243 16.1598 9.20468 12.214 10.0241 8.40657C10.6463 5.51642 12.0223 2.84259 13.0696 0.0952135C13.1178 -0.0302572 13.1879 -0.0216041 13.2054 0.0952135C13.5955 3.17514 14.2582 6.21538 15.186 9.18103C15.8214 11.1539 16.5269 13.1052 17.228 15.0565C18.5821 18.825 19.178 22.7448 18.5426 26.7383C17.8809 30.8312 15.9967 34.4655 13.4201 37.6975L13.3412 37.7927C13.0696 38.1129 12.9819 38.0177 13.1397 37.7062H13.1572Z" fill="white"/>
<path fill-rule="evenodd" clip-rule="evenodd" d="M5.49524 12.586L10.013 1.41046C10.219 0.921561 10.6484 0.0129801 11.2926 0.0129801H15.1399L15.8191 0.640333V24.8692L15.1399 25.4965H11.0516L10.3154 24.8865V12.3394L5.61355 24.6701C5.54476 24.9053 5.40104 25.1122 5.20369 25.2603C5.00635 25.4084 4.76591 25.4897 4.51806 25.4922H0.727675C0.571327 25.5015 0.416523 25.4572 0.28948 25.3667C0.186713 25.2712 0.107573 25.1536 0.0581834 25.0231C0.00879415 24.8926 -0.00952076 24.7525 0.00465263 24.6139V0.63168L0.675091 3.30092e-08H4.76345L5.49524 0.623028V12.586Z" transform="translate(43.1074 6.19531)" fill="white"/>
<path fill-rule="evenodd" clip-rule="evenodd" d="M10.6262 12.1577L10.6657 12.188C11.0294 12.4692 11.3975 12.7591 11.7436 13.0533C11.9679 13.2409 12.1747 13.4479 12.3615 13.672C12.7467 14.2529 13.0131 14.9025 13.1459 15.5843C13.2028 15.991 13.2423 16.4021 13.2729 16.8088C13.3124 17.3496 13.3299 17.8904 13.3299 18.4312V20.2051C13.3036 20.3782 13.2788 20.5512 13.2554 20.7243C13.2291 20.9277 13.1897 21.1267 13.1459 21.3257C12.3615 24.3976 10.153 25.7475 7.01112 25.8383H5.0743C4.41262 25.8383 3.75971 25.8383 3.08928 25.7864C2.5985 25.7561 2.10334 25.7172 1.61256 25.6609C1.04291 25.5787 -2.13963e-06 25.3667 -2.13963e-06 24.6226V20.9363L0.20595 20.5253C0.261959 20.481 0.331405 20.4567 0.403137 20.4561C0.490776 20.4561 0.582797 20.4561 0.670436 20.4561C0.758075 20.4561 0.911444 20.4561 1.03414 20.4561C1.10808 20.4582 1.18155 20.4683 1.25324 20.4863C1.64761 20.5686 2.04199 20.6464 2.43636 20.7157C2.71681 20.7632 3.00164 20.8108 3.28646 20.8368H4.32937C6.42832 20.8368 7.47999 19.846 7.47999 17.7606C7.50339 17.2463 7.43365 16.7321 7.27404 16.242C6.93225 15.3767 6.37136 14.5892 5.37228 14.5113C4.87858 14.4623 4.38487 14.4205 3.89117 14.3859C3.39747 14.3513 2.89355 14.334 2.3794 14.334H2.34872C2.16665 14.3197 1.99691 14.2375 1.874 14.1041C1.7511 13.9707 1.68425 13.7961 1.68705 13.6157V10.2713C1.68069 10.1806 1.69393 10.0897 1.72591 10.0045C1.75789 9.91929 1.80788 9.84178 1.87254 9.77712C1.9372 9.71246 2.01506 9.66212 2.10094 9.62947C2.18682 9.59681 2.27875 9.58257 2.37064 9.5877L3.96567 9.51415C4.49442 9.49107 5.02318 9.45502 5.55193 9.40598C6.73506 9.28051 7.12067 8.46711 7.12067 7.36816C7.15808 6.90948 7.0385 6.45168 6.78109 6.06807C6.52367 5.68447 6.1433 5.39726 5.70092 5.25246C5.44551 5.18649 5.18435 5.14448 4.92094 5.127C4.52218 5.09238 4.11904 5.08373 3.72028 5.08373H2.40569C2.10334 5.13132 1.80098 5.17891 1.49425 5.21785C1.29964 5.24513 1.10357 5.26102 0.907065 5.26545C0.813604 5.27576 0.71899 5.26517 0.630238 5.23447C0.541485 5.20376 0.46087 5.15372 0.394371 5.08806C0.327872 5.0224 0.277195 4.94281 0.246095 4.85518C0.214995 4.76755 0.204269 4.67413 0.214716 4.58185V1.07299C0.214716 0.501883 1.00785 0.276901 1.45481 0.17739C1.67391 0.134124 1.893 0.0951851 2.11648 0.0692256C2.26386 0.0551864 2.41022 0.0320655 2.55468 -3.9611e-07H6.93663C7.19516 0.0302856 7.4537 0.0778784 7.70786 0.125471C8.07594 0.194696 8.4484 0.28988 8.80772 0.398045C10.6788 0.917234 11.9014 2.20223 12.6376 3.95449C12.7927 4.36135 12.8957 4.78576 12.9443 5.21785C13.0169 5.80347 13.0505 6.39314 13.0451 6.9831C13.0451 9.05985 12.4272 10.9376 10.692 12.175" transform="translate(61.3633 5.99609)" fill="white"/>
<path fill-rule="evenodd" clip-rule="evenodd" d="M4.92122 5.26123L4.71526 5.05788H0.70578C0.206238 5.05788 0.00466514 4.71608 0.00466514 4.25746V0.696688C-0.00868056 0.581618 0.00670919 0.465072 0.0494836 0.357224C0.092258 0.249377 0.161115 0.153509 0.250053 0.0779876C0.332042 0.0251928 0.428257 -0.00194957 0.526119 0.000109035H14.9252C15.023 -0.00168244 15.1192 0.0254379 15.2013 0.0779876C15.2891 0.154186 15.3569 0.250284 15.3989 0.358043C15.4409 0.465802 15.4558 0.582005 15.4423 0.696688V4.25313C15.4423 4.5084 15.4028 4.86318 15.1487 5.00163C15.0789 5.03953 15.0004 5.05891 14.9208 5.05788H10.6966L10.5214 5.2569V24.8866L9.76328 25.5096H5.67929L4.92122 24.8866V5.26123Z" transform="translate(92.5527 6.19531)" fill="white"/>
<path fill-rule="evenodd" clip-rule="evenodd" d="M4.92098 5.26123L4.71503 5.05788H0.705548C0.206005 5.05788 0.00443254 4.71608 0.00443254 4.25746V0.696688C-0.00853144 0.581645 0.00703687 0.465214 0.0497859 0.357431C0.0925349 0.249648 0.161181 0.153745 0.249821 0.0779876C0.331922 0.0254379 0.42806 -0.00168244 0.525886 0.000109035H14.925C15.0228 -0.00194957 15.1191 0.0251928 15.201 0.0779876C15.29 0.153509 15.3588 0.249377 15.4016 0.357224C15.4444 0.465072 15.4598 0.581618 15.4464 0.696688V4.25313C15.4464 4.5084 15.407 4.86318 15.1528 5.00163C15.0831 5.03953 15.0046 5.05891 14.925 5.05788H10.7008L10.5255 5.2569V24.8866L9.76742 25.5096H5.68345L4.92537 24.8866L4.92098 5.26123Z" transform="translate(75.8672 6.19531)" fill="white"/>
<path d="M0.639764 0H0V36.9317H0.639764V0Z" transform="translate(35.3789 0.289062)" fill="white"/>
</svg>
