<svg width="187" height="18" viewBox="0 0 187 18" fill="none" xmlns="http://www.w3.org/2000/svg">
<path d="M-4.70649e-06 -1.02188e-06H4.41247V6.91467H5.92898L11.1126 -1.02188e-06H15.6364V0.644577L9.48467 8.76471L16.1077 16.9685V17.4792H11.0869L5.85187 10.665H4.41247V17.4792H-4.70649e-06V-1.02188e-06Z" transform="translate(0 0.259766)" fill="currentColor"/>
<path d="M14.4198 17.5043H18.8922L12.1322 0H6.92287L3.13766e-06 17.4792H4.47245L5.90329 13.7289H13.0232L14.4198 17.5043ZM7.35126 9.97018L9.5275 4.28608L11.6352 9.97018H7.35126Z" transform="translate(17.0527 0.236328)" fill="currentColor"/>
<path d="M14.4198 17.5043H18.8922L12.1321 0H6.92287L5.22943e-07 17.4792H4.47245L5.91185 13.7289H13.0318L14.4198 17.5043ZM7.35126 9.97018L9.52751 4.28608L11.6352 9.97018H7.35126Z" transform="translate(51.2793 0.236328)" fill="currentColor"/>
<path d="M5.22943e-07 17.4792V-1.02188e-06H4.42104V13.7289H13.3402V17.4792H5.22943e-07Z" transform="translate(37.1426 0.259766)" fill="currentColor"/>
<path d="M1.89352 12.515C3.57166 13.608 5.53214 14.2146 7.54831 14.2646C9.3133 14.2646 10.4186 13.6954 10.4186 12.5904C10.4186 11.8202 9.84452 11.3598 8.39655 10.9998L5.47489 10.2297C2.39902 9.39257 0.925339 7.8355 0.925339 5.37434C0.925339 2.39417 3.26438 8.17506e-06 8.07954 8.17506e-06C10.3047 0.00365345 12.5027 0.477714 14.5226 1.38964L13.2888 5.10646C11.6287 4.22622 9.77921 3.7415 7.89105 3.69174C6.17747 3.69174 5.41491 4.22748 5.41491 5.08135C5.41491 5.93521 5.93755 6.16124 7.04281 6.47098L10.2215 7.36671C13.5116 8.29592 14.9339 9.87808 14.9339 12.2806C14.9339 15.6291 11.9094 17.9647 7.43695 17.9647C4.81419 17.9478 2.24476 17.2392 -8.36709e-06 15.9138L1.89352 12.515Z" transform="translate(71.0977 0.0351562)" fill="currentColor"/>
<path d="M11.6438 10.5143H4.42104V17.4792H1.04589e-06V-1.02188e-06H4.42104V6.76397H11.6438V-1.02188e-06H16.0648V17.4792H11.6438V10.5143Z" transform="translate(88.2129 0.259766)" fill="currentColor"/>
<path d="M4.42105 6.86444V17.4792H7.3212e-06V-1.02188e-06H3.84699L11.7038 10.6148V-1.02188e-06H16.1248V17.4792H12.2778L4.42105 6.86444Z" transform="translate(107.553 0.259766)" fill="currentColor"/>
<path d="M4.42103 0H-6.27532e-06V17.4792H4.42103V0Z" transform="translate(126.949 0.259766)" fill="currentColor"/>
<path d="M1.04589e-06 -1.02188e-06H4.42104V6.91467H5.87757L11.0612 -1.02188e-06H15.585V0.644577L9.43327 8.76471L16.0562 16.9685V17.4792H11.0355L5.80046 10.665H4.42104V17.4792H1.04589e-06V-1.02188e-06Z" transform="translate(134.264 0.259766)" fill="currentColor"/>
<path d="M9.1878 0.00181709C11.0095 -0.00314299 12.7917 0.519792 14.3092 1.5045C15.8267 2.4892 17.0112 3.89144 17.713 5.53391C18.4148 7.17637 18.6024 8.98528 18.252 10.7319C17.9016 12.4785 17.0289 14.0844 15.7444 15.3464C14.4599 16.6085 12.8212 17.47 11.0356 17.8221C9.24991 18.1743 7.39749 18.0011 5.71256 17.3246C4.02762 16.648 2.58586 15.4985 1.56957 14.0214C0.553281 12.5443 0.00810461 10.8059 0.00301383 9.02604C-0.0285165 7.83682 0.187116 6.6537 0.636873 5.54821C1.08663 4.44273 1.76118 3.43784 2.61972 2.59431C3.47826 1.75078 4.50297 1.08612 5.6319 0.640519C6.76082 0.194921 7.97049 -0.0223516 9.1878 0.00181709ZM9.1878 13.9316C10.1912 13.9649 11.1819 13.7047 12.0328 13.1841C12.8837 12.6635 13.556 11.9065 13.9635 11.01C14.371 10.1135 14.495 9.1185 14.3197 8.15266C14.1444 7.18682 13.6778 6.29419 12.9796 5.58927C12.2815 4.88435 11.3837 4.39929 10.4015 4.19634C9.41928 3.99339 8.3974 4.0818 7.46695 4.45023C6.53651 4.81865 5.73996 5.45029 5.17947 6.26409C4.61898 7.0779 4.32012 8.03675 4.32124 9.01766C4.287 9.65831 4.38818 10.299 4.61848 10.8998C4.84879 11.5005 5.20329 12.0485 5.65987 12.5095C6.11646 12.9706 6.66534 13.3348 7.27232 13.5794C7.87929 13.8241 8.53133 13.944 9.1878 13.9316Z" transform="translate(149.865)" fill="currentColor"/>
<path d="M-1.04589e-05 -1.02188e-06H4.84087L9.54464 13.3689L14.4198 -1.02188e-06H19.2521L12.3635 17.4792H6.76008L-1.04589e-05 -1.02188e-06Z" transform="translate(167.748 0.259766)" fill="currentColor"/>
</svg>
