<svg width="12" height="21" viewBox="0 0 12 21" fill="none" xmlns="http://www.w3.org/2000/svg">
<path fill-rule="evenodd" clip-rule="evenodd" d="M0.945046 5.0508C0.929421 7.82033 3.19505 10.1133 5.95872 10.1231C8.74973 10.1328 11.0329 7.8926 11.0466 5.12697C11.0603 2.2969 8.81614 0.00783271 6.01927 2.02136e-05C3.22825 -0.00779229 0.960671 2.25002 0.945046 5.0508ZM5.99973 2.58596C7.37083 2.58596 8.46653 3.68166 8.47044 5.05666C8.47434 6.43166 7.3845 7.53518 6.01145 7.53908C4.63645 7.54494 3.53294 6.45705 3.52317 5.08596C3.51145 3.69924 4.61692 2.584 5.99973 2.58596ZM0.874734 12.6055C2.07005 13.543 3.46653 13.9238 5.01536 14.086L4.76145 14.3594L1.3513 17.7774C1.11497 18.0137 0.946999 18.2754 0.929421 18.6192C0.905984 19.127 1.22044 19.6309 1.71458 19.8711C2.17942 20.0977 2.65598 20.0254 3.05833 19.6309C3.95091 18.75 4.83762 17.8633 5.71262 16.9629C5.93137 16.7383 6.05052 16.6895 6.29661 16.9473C6.86887 17.5488 7.45872 18.1328 8.04661 18.7188L8.90208 19.5723C9.12864 19.8008 9.38255 19.9629 9.71067 19.9863C10.2263 20.0215 10.7536 19.6914 10.988 19.1875C11.2029 18.7285 11.1208 18.2383 10.7302 17.8418C9.99387 17.0957 9.25169 16.3535 8.51145 15.6113L7.27708 14.3731L7.0095 14.084C7.85716 13.9824 8.71262 13.8301 9.49583 13.5274C10.322 13.2051 11.0661 12.7461 11.6833 12.1113C12.0876 11.6953 12.0915 11.1738 11.7654 10.6406C11.4782 10.1738 10.9802 9.97658 10.447 10.1133C10.1716 10.1856 9.93528 10.3242 9.71262 10.4942C7.4763 12 4.4138 11.9571 2.18528 10.4258C2.07591 10.3496 1.96262 10.2793 1.84153 10.2227C1.22434 9.92971 0.62864 10.0664 0.275124 10.5742C-0.138938 11.168 -0.0862038 11.7442 0.437234 12.2481C0.548562 12.3555 0.673562 12.4512 0.796609 12.5449L0.874734 12.6055Z" transform="translate(0 0.998047)" fill="currentColor"/>
</svg>
