<svg width="13" height="22" viewBox="0 0 13 22" fill="none" xmlns="http://www.w3.org/2000/svg">
<path d="M11 17H2V3H11V17ZM6.5 21C6.10218 21 5.72064 20.842 5.43934 20.5607C5.15804 20.2794 5 19.8978 5 19.5C5 19.1022 5.15804 18.7206 5.43934 18.4393C5.72064 18.158 6.10218 18 6.5 18C6.89782 18 7.27936 18.158 7.56066 18.4393C7.84196 18.7206 8 19.1022 8 19.5C8 19.8978 7.84196 20.2794 7.56066 20.5607C7.27936 20.842 6.89782 21 6.5 21ZM10.5 0H2.5C1.83696 0 1.20107 0.263392 0.732233 0.732233C0.263392 1.20107 0 1.83696 0 2.5V19.5C0 20.163 0.263392 20.7989 0.732233 21.2678C1.20107 21.7366 1.83696 22 2.5 22H10.5C11.163 22 11.7989 21.7366 12.2678 21.2678C12.7366 20.7989 13 20.163 13 19.5V2.5C13 1.83696 12.7366 1.20107 12.2678 0.732233C11.7989 0.263392 11.163 0 10.5 0Z" fill="currentColor"/>
</svg>
