<svg width="50" height="50" viewBox="0 0 50 50" fill="none" xmlns="http://www.w3.org/2000/svg">
<path d="M-4.65437e-07 2.44023C-4.65437e-07 2.92286 0.143117 3.39466 0.411253 3.79595C0.679389 4.19725 1.0605 4.51002 1.5064 4.69471C1.95229 4.87941 2.44294 4.92773 2.9163 4.83358C3.38966 4.73942 3.82446 4.50701 4.16574 4.16574C4.50701 3.82446 4.73942 3.38966 4.83358 2.9163C4.92773 2.44294 4.87941 1.95229 4.69471 1.5064C4.51002 1.0605 4.19725 0.67939 3.79595 0.411253C3.39466 0.143117 2.92286 0 2.44023 0C1.79304 0 1.17236 0.257096 0.714728 0.714728C0.257095 1.17236 -4.65437e-07 1.79304 -4.65437e-07 2.44023Z" transform="translate(22.5605 22.5)" stroke="#F3930E" stroke-width="2" stroke-miterlimit="10"/>
<path d="M45.8764 22.9382C45.8764 27.4749 44.5311 31.9098 42.0106 35.682C39.4901 39.4541 35.9077 42.3942 31.7163 44.1303C27.5249 45.8664 22.9127 46.3207 18.4632 45.4356C14.0136 44.5505 9.92641 42.3659 6.71845 39.1579C3.51049 35.95 1.32584 31.8628 0.440761 27.4132C-0.444314 22.9636 0.00993869 18.3515 1.74608 14.1601C3.48221 9.96872 6.42226 6.38626 10.1944 3.86578C13.9666 1.3453 18.4015 5.81797e-08 22.9382 5.81797e-08C25.9505 5.81797e-08 28.9333 0.593314 31.7163 1.74607C34.4992 2.89882 37.0279 4.58843 39.1579 6.71844C41.2879 8.84845 42.9776 11.3771 44.1303 14.1601C45.2831 16.9431 45.8764 19.9259 45.8764 22.9382Z" transform="translate(2.06055 2)" stroke="#F3930E" stroke-width="2" stroke-miterlimit="10"/>
<path d="M11.5911 0C9.24945 0.437633 7.01844 1.33736 5.02831 2.64665C3.03818 3.95595 1.32881 5.64858 0 7.62573" transform="translate(21.1562 1.75781)" stroke="#404040" stroke-width="2" stroke-miterlimit="10"/>
<path d="M6.22259 -5.81797e-09C4.41435 1.54969 2.93283 3.44397 1.86447 5.57232C0.796104 7.70067 0.162288 10.0205 -3.25806e-07 12.3964" transform="translate(13.873 1)" stroke="#404040" stroke-width="2" stroke-miterlimit="10"/>
<path d="M1.0206 0C0.228656 2.24614 -0.108011 4.62751 0.0302484 7.00516C0.168508 9.38281 0.778925 11.7091 1.82588 13.8483" transform="translate(7.72656 6.63672)" stroke="#404040" stroke-width="2" stroke-miterlimit="10"/>
<path d="M1.74539e-08 -2.32719e-07C0.437633 2.34165 1.33736 4.57267 2.64665 6.56279C3.95595 8.55292 5.64858 10.2623 7.62573 11.5911" transform="translate(1.76953 17.2539)" stroke="#404040" stroke-width="2" stroke-miterlimit="10"/>
<path d="M2.32719e-08 -3.7235e-07C1.54969 1.80824 3.44397 3.28976 5.57232 4.35812C7.70067 5.42649 10.0205 6.0603 12.3964 6.22259" transform="translate(1 29.9062)" stroke="#404040" stroke-width="2" stroke-miterlimit="10"/>
<path d="M1.39631e-07 0.805275C2.24614 1.59722 4.62751 1.93389 7.00516 1.79563C9.38281 1.65737 11.7091 1.04695 13.8483 -1.11705e-06" transform="translate(6.67383 40.4492)" stroke="#404040" stroke-width="2" stroke-miterlimit="10"/>
<path d="M5.11981e-07 7.62573C2.34165 7.18809 4.57267 6.28837 6.56279 4.97907C8.55292 3.66978 10.2623 1.97715 11.5911 1.86175e-07" transform="translate(17.2637 40.6055)" stroke="#404040" stroke-width="2" stroke-miterlimit="10"/>
<path d="M3.7235e-07 12.3964C1.80824 10.8467 3.28976 8.95241 4.35812 6.82406C5.42649 4.69571 6.0603 2.37591 6.22259 -6.51612e-07" transform="translate(29.916 36.6055)" stroke="#404040" stroke-width="2" stroke-miterlimit="10"/>
<path d="M0.805276 13.8483C1.59722 11.6022 1.93389 9.2208 1.79563 6.84316C1.65737 4.46551 1.04695 2.13921 -3.7235e-07 -8.37787e-07" transform="translate(40.459 29.4766)" stroke="#404040" stroke-width="2" stroke-miterlimit="10"/>
<path d="M7.62573 11.5911C7.18809 9.24945 6.28837 7.01844 4.97907 5.02831C3.66978 3.03818 1.97715 1.32881 9.30875e-07 -7.447e-07" transform="translate(40.6172 21.1445)" stroke="#404040" stroke-width="2" stroke-miterlimit="10"/>
<path d="M12.3964 6.22259C10.8467 4.41435 8.95241 2.93283 6.82406 1.86447C4.69571 0.796105 2.37591 0.162288 -1.86175e-07 -4.65437e-07" transform="translate(36.6035 13.8359)" stroke="#404040" stroke-width="2" stroke-miterlimit="10"/>
<path d="M13.8483 1.0206C11.6022 0.228656 9.2208 -0.108011 6.84316 0.0302485C4.46551 0.168508 2.13921 0.778925 -3.7235e-07 1.82588" transform="translate(29.4785 7.72656)" stroke="#404040" stroke-width="2" stroke-miterlimit="10"/>
<path d="M0.332204 2.80119C0.537521 3.08707 0.823444 3.30521 1.15341 3.42772C1.48337 3.55022 1.84237 3.57152 2.1845 3.48889C2.52664 3.40627 2.83635 3.22346 3.07403 2.96387C3.31171 2.70427 3.46656 2.37968 3.51877 2.03161C3.57098 1.68353 3.51818 1.3278 3.36713 1.00989C3.21607 0.691983 2.97362 0.426358 2.67079 0.246985C2.36796 0.0676118 2.0185 -0.0173564 1.66712 0.00294674C1.31574 0.0232499 0.978397 0.147901 0.698239 0.36096C0.331428 0.639918 0.0879404 1.05099 0.01958 1.50673C-0.0487803 1.96246 0.0633817 2.42689 0.332204 2.80119Z" transform="translate(18.8223 17.2578)" fill="#F3930E"/>
<path d="M2.80119 3.20614C3.08707 3.00082 3.30521 2.7149 3.42772 2.38494C3.55022 2.05498 3.57152 1.69597 3.4889 1.35384C3.40627 1.01171 3.22347 0.701996 2.96387 0.464315C2.70428 0.226634 2.37968 0.0717869 2.03161 0.0195756C1.68353 -0.0326357 1.32779 0.0201615 1.00989 0.171217C0.691982 0.322273 0.426357 0.564721 0.246984 0.867554C0.0676114 1.17039 -0.0173569 1.51984 0.00294627 1.87122C0.0232494 2.22261 0.147901 2.55995 0.360959 2.84011C0.639918 3.20692 1.05099 3.4504 1.50673 3.51876C1.96247 3.58712 2.42689 3.47496 2.80119 3.20614Z" transform="translate(17.3184 27.5625)" fill="#F3930E"/>
<path d="M3.20614 0.737145C3.00082 0.451266 2.7149 0.233125 2.38494 0.11062C2.05498 -0.0118846 1.69597 -0.0331849 1.35384 0.0494433C1.01171 0.132071 0.701997 0.314872 0.464316 0.574468C0.226634 0.834064 0.0717852 1.15865 0.0195739 1.50673C-0.0326374 1.8548 0.0201621 2.21054 0.171218 2.52845C0.322274 2.84635 0.564721 3.11198 0.867554 3.29135C1.17039 3.47073 1.51984 3.5557 1.87122 3.53539C2.22261 3.51509 2.55995 3.39044 2.84011 3.17738C3.20692 2.89842 3.4504 2.48734 3.51876 2.03161C3.58712 1.57587 3.47496 1.11145 3.20614 0.737145Z" transform="translate(27.6738 29.082)" fill="#F3930E"/>
<path d="M0.737146 0.332204C0.451266 0.537521 0.233126 0.823444 0.110621 1.15341C-0.0118842 1.48337 -0.0331868 1.84237 0.0494413 2.1845C0.132069 2.52664 0.31487 2.83635 0.574466 3.07403C0.834062 3.31171 1.15865 3.46656 1.50673 3.51877C1.85481 3.57098 2.21054 3.51818 2.52845 3.36713C2.84636 3.21607 3.11198 2.97362 3.29135 2.67079C3.47072 2.36796 3.55569 2.0185 3.53539 1.66712C3.51509 1.31574 3.39044 0.978397 3.17738 0.698239C2.89842 0.331428 2.48734 0.0879409 2.03161 0.0195805C1.57587 -0.0487798 1.11145 0.0633823 0.737146 0.332204Z" transform="translate(29.1797 18.7109)" fill="#F3930E"/>
</svg>
