<svg width="8" height="13" viewBox="0 0 8 13" fill="none" xmlns="http://www.w3.org/2000/svg">
<path d="M7.72656 10.5078C7.72656 9.77865 7.8151 9.19792 7.99219 8.76562C8.16927 8.33333 8.49219 7.90885 8.96094 7.49219C9.4349 7.07031 9.75 6.72917 9.90625 6.46875C10.0625 6.20312 10.1406 5.92448 10.1406 5.63281C10.1406 4.7526 9.73438 4.3125 8.92188 4.3125C8.53646 4.3125 8.22656 4.43229 7.99219 4.67188C7.76302 4.90625 7.64323 5.23177 7.63281 5.64844H5.36719C5.3776 4.65365 5.69792 3.875 6.32812 3.3125C6.96354 2.75 7.82812 2.46875 8.92188 2.46875C10.026 2.46875 10.8828 2.73698 11.4922 3.27344C12.1016 3.80469 12.4062 4.55729 12.4062 5.53125C12.4062 5.97396 12.3073 6.39323 12.1094 6.78906C11.9115 7.17969 11.5651 7.61458 11.0703 8.09375L10.4375 8.69531C10.0417 9.07552 9.8151 9.52083 9.75781 10.0312L9.72656 10.5078H7.72656ZM7.5 12.9062C7.5 12.5573 7.61719 12.2708 7.85156 12.0469C8.09115 11.8177 8.39583 11.7031 8.76562 11.7031C9.13542 11.7031 9.4375 11.8177 9.67188 12.0469C9.91146 12.2708 10.0312 12.5573 10.0312 12.9062C10.0312 13.25 9.91406 13.5339 9.67969 13.7578C9.45052 13.9818 9.14583 14.0938 8.76562 14.0938C8.38542 14.0938 8.07812 13.9818 7.84375 13.7578C7.61458 13.5339 7.5 13.25 7.5 12.9062Z" transform="translate(-5 -2)" fill="currentColor"/>
</svg>
