<svg width="52" height="52" viewBox="0 0 52 52" fill="none" xmlns="http://www.w3.org/2000/svg">
<path d="M48.2355 20.9931C48.9443 20.9931 49.764 21.5218 49.8429 22.2245C50.0553 24.1181 50.0529 26.03 49.8321 27.9093C49.7454 28.6412 49.0861 29.1937 48.3687 29.1355L48.0594 29.1273C45.8495 29.1273 43.7948 30.4887 42.9455 32.5163C42.0418 34.67 42.606 37.1772 44.346 38.7522C44.8912 39.2463 44.9567 40.0795 44.495 40.6525C43.3062 42.1333 41.9463 43.4787 40.4508 44.6513C39.8752 45.0965 39.0582 45.0312 38.5641 44.4934C37.0762 42.86 34.4299 42.245 32.3727 43.0853C30.2443 43.9565 28.8677 46.0994 28.9514 48.4165C28.9758 49.1433 28.4391 49.7682 27.7143 49.8482C26.7994 49.9501 25.8845 50 24.9698 50C24.0061 50 23.0454 49.9446 22.0896 49.8329C21.3589 49.7494 20.8196 49.108 20.8631 48.3722C20.9957 46.0304 19.6381 43.8495 17.4801 42.9465C15.42 42.0818 12.7437 42.6939 11.2478 44.3481C10.7511 44.8956 9.91772 44.9603 9.34469 44.4988C7.88511 43.3232 6.55137 41.9771 5.3904 40.4975C4.9389 39.9268 5.00723 39.1058 5.54198 38.6143C7.25154 37.0464 7.81375 34.5627 6.94038 32.4318C6.06268 30.2982 3.97341 28.9511 1.79592 29.0064C1.07932 29.0064 0.235355 28.4823 0.156429 27.7765C-0.0550493 25.8836 -0.0526707 23.9695 0.167024 22.092C0.254599 21.3711 0.818757 20.8385 1.61148 20.864C4.05428 20.864 6.18831 19.54 7.05109 17.4847C7.95473 15.3289 7.3936 12.8228 5.65313 11.2466C5.11103 10.7534 5.04291 9.92135 5.50414 9.34725C6.68781 7.87038 8.05031 6.52434 9.54839 5.34868C10.1216 4.90173 10.9435 4.9679 11.435 5.50675C12.9221 7.14255 15.5803 7.75124 17.6239 6.91637C19.7549 6.04344 21.1284 3.90079 21.0473 1.58257C21.0233 0.856026 21.5609 0.231763 22.2849 0.151757C24.1579 -0.056042 26.0419 -0.0497713 27.9096 0.166461C28.6428 0.251873 29.1808 0.891272 29.1369 1.62711C29.0035 3.96826 30.3617 6.14939 32.5134 7.05476C34.5819 7.91774 37.2587 7.3045 38.7488 5.65422C39.2429 5.10737 40.0795 5.0438 40.6488 5.50048C42.1041 6.66619 43.4366 8.01137 44.6094 9.50034C45.06 10.0716 44.9945 10.8946 44.457 11.3861C42.7502 12.9518 42.1887 15.4366 43.059 17.5675C43.9116 19.6486 45.9447 20.9931 48.2355 20.9931Z" transform="translate(1 1)" stroke="#F3930E" stroke-width="2"/>
<path d="M22.9167 18.2292L15.9454 11.5086C16.3747 10.4995 16.6014 9.40547 16.6012 8.27643C16.6012 6.06553 15.7376 3.9871 14.1693 2.42398C12.6015 0.86086 10.5168 0 8.29968 0C7.55975 0 6.82328 0.0980359 6.11078 0.291477C5.79871 0.376347 5.54354 0.632784 5.46044 0.944517C5.37552 1.26334 5.47121 1.59006 5.7211 1.83941C5.7211 1.83941 8.64852 4.78052 9.62798 5.75683C9.73058 5.85912 9.73037 6.10321 9.71595 6.19111L9.70681 6.25532C9.60807 7.32887 9.4177 8.61753 9.26066 9.11278C9.23953 9.13364 9.21962 9.15126 9.19808 9.17274C9.17553 9.19522 9.15481 9.21689 9.13307 9.23917C8.62983 9.4002 7.80289 9.52149 7.80289 9.52149L6.17457 9.69634C6.16583 9.69735 6.14958 9.69857 6.12804 9.69857C6.0098 9.69857 5.83589 9.66555 5.67783 9.50817C4.65834 8.49174 1.84572 5.70761 1.84572 5.70761C1.59339 5.45685 1.33456 5.40419 1.16207 5.40419C0.760004 5.40419 0.399994 5.69384 0.286628 6.10928C-0.487637 8.96592 0.333152 12.0387 2.42921 14.1287C3.99745 15.692 6.08233 16.5528 8.29989 16.5528C9.43233 16.5528 10.5296 16.327 11.5416 15.899L18.2292 22.9167" transform="translate(15.582 15.582)" stroke="#404040" stroke-width="2"/>
<circle cx="16" cy="16" r="15" transform="translate(10 10)" stroke="#F3930E" stroke-width="2"/>
</svg>
