<svg width="50" height="50" viewBox="0 0 50 50" fill="none" xmlns="http://www.w3.org/2000/svg">
<path d="M22.5 0C22.5 3.44028 20.7581 6.58141 17.8548 8.22676L0 18.6972L22.5 31.86L39.7742 21.8383C42.9677 19.8938 45 16.3039 45 12.5645L22.5 0Z" transform="translate(3 2)" stroke="#404040" stroke-width="2" stroke-miterlimit="10"/>
<path d="M0 -5.28294e-07L22.5 12.8795L45 -5.28294e-07" transform="translate(3 24.7422)" stroke="#F3930E" stroke-width="2" stroke-miterlimit="10"/>
<path d="M0 0L22.5 12.8795L45 0" transform="translate(3 28.1523)" stroke="#F3930E" stroke-width="2" stroke-miterlimit="10"/>
<path d="M0 -1.05659e-06L22.5 13.018L45 -1.05659e-06" transform="translate(3 31.5664)" stroke="#F3930E" stroke-width="2" stroke-miterlimit="10"/>
<path d="M0 0L22.5 13.018L45 0" transform="translate(3 34.9805)" stroke="#F3930E" stroke-width="2" stroke-miterlimit="10"/>
</svg>
