<svg width="50" height="50" viewBox="0 0 50 50" fill="none" xmlns="http://www.w3.org/2000/svg">
<path d="M17.2226 -4.57764e-07H-7.66316e-08" transform="translate(1 45.9961)" stroke="#404040" stroke-width="2" stroke-miterlimit="10"/>
<path d="M0 0H11.1319C12.8998 0 14.5953 0.691538 15.8454 1.92248C17.0955 3.15343 17.7978 4.82295 17.7978 6.56377V6.80006C17.7978 8.54088 17.0955 10.2104 15.8454 11.4413C14.5953 12.6723 12.8998 13.3638 11.1319 13.3638H1.70647" transform="translate(30.2031 32.6367)" stroke="#404040" stroke-width="2" stroke-miterlimit="10"/>
<path d="M16.6154 0H6.69618C4.92024 0 3.21704 0.692059 1.96126 1.92393C0.705488 3.1558 0 4.82658 0 6.56871C0 8.31085 0.705488 9.98163 1.96126 11.2135C3.21704 12.4454 4.92024 13.1374 6.69618 13.1374H16.8296" transform="translate(3.05078 19.2852)" stroke="#404040" stroke-width="2" stroke-miterlimit="10"/>
<path d="M0 0H11.3319C12.2073 0 13.0741 0.169777 13.8828 0.499637C14.6916 0.829497 15.4264 1.31298 16.0454 1.92248C16.6644 2.53198 17.1554 3.25557 17.4904 4.05192C17.8254 4.84827 17.9978 5.7018 17.9978 6.56377V6.74755C17.9978 8.48837 17.2955 10.1579 16.0454 11.3888C14.7953 12.6198 13.0998 13.3113 11.3319 13.3113H0.0799899" transform="translate(30 6)" stroke="#404040" stroke-width="2" stroke-miterlimit="10"/>
<path d="M-7.66317e-08 5.72205e-08H19.1511" transform="translate(1 5.875)" stroke="#404040" stroke-width="2" stroke-miterlimit="10"/>
<path d="M0 27.84V0" transform="translate(25 5.80078)" stroke="#F3930E" stroke-width="2" stroke-miterlimit="10"/>
<path d="M0 0H5.27998" transform="translate(25 25.9609)" stroke="#F3930E" stroke-width="2"/>
<path d="M0 0H5.27998" transform="translate(25 19.2383)" stroke="#F3930E" stroke-width="2"/>
<path d="M0 0H5.27998" transform="translate(25 12.5195)" stroke="#F3930E" stroke-width="2"/>
<path d="M14.062 4.87399C14.062 3.58132 13.5385 2.34161 12.6067 1.42756C11.6749 0.513508 10.4112 0 9.09341 0C7.77566 0 6.51189 0.513508 5.5801 1.42756C4.64832 2.34161 4.12485 3.58132 4.12485 4.87399V31.6087C2.48378 32.6589 1.23243 34.201 0.557126 36.0053C-0.118174 37.8097 -0.18129 39.7797 0.377175 41.6221C0.935641 43.4645 2.08581 45.0807 3.65641 46.2299C5.227 47.3791 7.134 48 9.09341 48C11.0528 48 12.9598 47.3791 14.5304 46.2299C16.101 45.0807 17.2512 43.4645 17.8096 41.6221C18.3681 39.7797 18.305 37.8097 17.6297 36.0053C16.9544 34.201 15.703 32.6589 14.062 31.6087V4.87399Z" transform="translate(15.9316 1)" stroke="#F3930E" stroke-width="2" stroke-miterlimit="10"/>
<path d="M3.78936 7.57895C5.88216 7.57895 7.57871 5.88234 7.57871 3.78947C7.57871 1.69661 5.88216 0 3.78936 0C1.69655 0 0 1.69661 0 3.78947C0 5.88234 1.69655 7.57895 3.78936 7.57895Z" transform="translate(21.2109 36.3672)" stroke="#F3930E" stroke-width="2" stroke-miterlimit="10"/>
</svg>
