<svg width="50" height="50" viewBox="0 0 50 50" fill="none" xmlns="http://www.w3.org/2000/svg">
<path d="M44.0197 0H3.98027C1.78203 0 0 1.85722 0 4.14822V40.8518C0 43.1428 1.78203 45 3.98027 45H44.0197C46.218 45 48 43.1428 48 40.8518V4.14822C48 1.85722 46.218 0 44.0197 0Z" transform="translate(1 3)" stroke="#F3930E" stroke-width="2" stroke-miterlimit="10"/>
<path d="M38.5945 0H1.40552C0.629275 0 0 0.671906 0 1.50074V17.4993C0 18.3281 0.629275 19 1.40552 19H38.5945C39.3707 19 40 18.3281 40 17.4993V1.50074C40 0.671906 39.3707 0 38.5945 0Z" transform="translate(5 7)" stroke="#F3930E" stroke-width="2" stroke-miterlimit="10"/>
<path d="M0 -6.10352e-07H9" transform="translate(33 11)" stroke="#404040" stroke-width="2" stroke-miterlimit="10"/>
<path d="M-2.04899e-06 3.05176e-07H5.49441" transform="translate(36.5039 15)" stroke="#404040" stroke-width="2" stroke-miterlimit="10"/>
<path d="M8 3.27273L4 0L0 3.27273" transform="translate(32 35)" stroke="#404040" stroke-width="2"/>
<path d="M18 0H0V14H18V0Z" transform="translate(27 30)" stroke="#404040" stroke-width="2" stroke-miterlimit="10"/>
<path d="M8 3.27273L4 0L0 3.27273" transform="translate(18 38.2734) rotate(180)" stroke="#404040" stroke-width="2"/>
<path d="M18 0H0V14H18V0Z" transform="translate(23 44) rotate(180)" stroke="#404040" stroke-width="2" stroke-miterlimit="10"/>
<path d="M7.18711 11.0987H0.143922C0.131336 11.0989 0.118984 11.0953 0.10846 11.0884C0.097937 11.0815 0.0897247 11.0716 0.0848836 11.06C0.0800424 11.0484 0.0787946 11.0356 0.0813012 11.0233C0.0838078 11.011 0.089955 10.9997 0.098947 10.9909L5.03727 5.42362C5.40414 5.00594 5.60845 4.47056 5.61296 3.91507V2.31671C5.61296 2.01248 5.55293 1.71122 5.4363 1.43015C5.31968 1.14907 5.14873 0.893676 4.93323 0.67855C4.71773 0.463423 4.46189 0.292776 4.18033 0.17635C3.89876 0.0599241 3.59698 -5.48066e-07 3.29222 -5.48066e-07H2.32074C1.70524 -5.48066e-07 1.11495 0.244081 0.67973 0.67855C0.244506 1.11302 6.86274e-08 1.70228 6.86274e-08 2.31671V2.31671" transform="translate(9 11.002)" stroke="#404040" stroke-width="2" stroke-miterlimit="10"/>
<path d="M5.69621 12V0.111127C5.69695 0.087694 5.69001 0.0646614 5.67644 0.0455221C5.66288 0.0263828 5.64343 0.0121816 5.62105 0.00507309C5.59867 -0.00203543 5.57458 -0.00166426 5.55243 0.00613154C5.53028 0.0139273 5.51128 0.0287222 5.49832 0.048271L0.0202859 8.21065C0.00858323 8.2269 0.00164764 8.24609 0.000258741 8.26606C-0.00113016 8.28604 0.00308287 8.306 0.0124229 8.32371C0.021763 8.34143 0.0358608 8.3562 0.0531379 8.36636C0.0704149 8.37652 0.0901881 8.38168 0.110238 8.38126H8.70958" transform="translate(18.2891 11)" stroke="#404040" stroke-width="2" stroke-miterlimit="10"/>
<path d="M1.5 3C2.32843 3 3 2.32843 3 1.5C3 0.671572 2.32843 0 1.5 0C0.671573 0 0 0.671572 0 1.5C0 2.32843 0.671573 3 1.5 3Z" transform="translate(27 10)" fill="#404040"/>
</svg>
