<svg width="20" height="10" viewBox="0 0 20 10" fill="none" xmlns="http://www.w3.org/2000/svg">
<path d="M4.38652 1.03224C4.94487 2.23233 5.65249 3.36381 6.58449 4.37956C6.7081 4.51474 6.86392 4.63491 7.02807 4.73276C7.26783 4.87607 7.49404 4.8257 7.59153 4.58699C7.69464 4.33649 7.78927 3.82882 7.79489 3.56577C7.81028 2.87843 7.79259 2.42797 7.75016 1.74148C7.72265 1.30179 7.54307 0.915713 6.79996 0.799183C6.57048 0.763054 6.54916 0.598649 6.6966 0.434645C7.00353 0.0931984 7.43111 0.0387822 7.89478 0.0172471C8.64627 -0.0180811 9.40051 0.010751 10.1529 0.0172471C10.4594 0.0196943 10.7677 0.041185 11.0695 0.0984487C11.4632 0.173154 11.674 0.41351 11.7389 0.748015C11.7725 0.920563 11.7898 1.09796 11.7851 1.27255C11.7655 2.02281 11.724 2.77267 11.7142 3.52252C11.71 3.81685 11.7347 4.11852 11.807 4.40515C11.9082 4.80461 12.2207 4.9049 12.5403 4.61627C12.9461 4.24969 13.3039 3.83718 13.6397 3.41823C14.2498 2.65618 14.7055 1.81987 15.0978 0.957581C15.3007 0.512642 15.4561 0.416002 16.006 0.4148C17.0397 0.412754 18.0734 0.411953 19.107 0.4148C19.2904 0.415601 19.4821 0.43064 19.6551 0.47856C19.9359 0.556513 20.0474 0.755846 19.9816 1.00879C19.8282 1.60154 19.4601 2.10535 19.066 2.58971C18.4335 3.36675 17.7706 4.12515 17.1232 4.89325C17.0407 4.99109 16.9679 5.09543 16.9002 5.20137C16.6581 5.58219 16.6749 5.79572 17.028 6.11278C17.5901 6.61743 18.1919 7.08956 18.7362 7.608C19.1318 7.98517 19.4979 8.39438 19.8114 8.82513C20.2079 9.36996 19.963 9.8831 19.2223 9.97445C18.7563 10.0317 16.4801 9.9749 16.3624 9.97445C15.7505 9.97205 15.214 9.78731 14.7821 9.42557C14.3016 9.02286 13.865 8.58112 13.4037 8.16092C13.2647 8.03425 13.1163 7.91287 12.9564 7.80689C12.579 7.55639 12.2086 7.612 12.0323 7.99772C11.8816 8.32902 11.7515 9.19901 11.7454 9.27332C11.7137 9.66184 11.4296 9.90949 10.9296 9.93343C9.48589 10.0016 8.08695 9.86157 6.78371 9.25383C5.67912 8.73903 4.79708 8.01111 4.03301 7.16221C2.81929 5.81387 1.86061 4.33173 0.985356 2.80608C0.940625 2.72808 0.0541272 1.08626 0.0303046 1.0087C-0.0488825 0.749038 0.024988 0.500985 0.277068 0.415601C0.434215 0.362387 3.35703 0.415423 3.40565 0.417692C3.87203 0.439672 4.19006 0.61093 4.38652 1.03224Z" fill="currentColor"/>
</svg>
