<svg width="50" height="51" viewBox="0 0 50 51" fill="none" xmlns="http://www.w3.org/2000/svg">
<path d="M34.5333 6.09259H40L38.9447 26.5615C38.8094 29.0282 38.0912 31.4343 36.8433 33.6006C35.5955 35.7669 33.8502 37.6377 31.7372 39.0738L20.6439 46.4749C20.4136 46.6279 19.857 47 19.857 47C19.857 47 19.3034 46.6279 19.073 46.4749L7.98949 39.1016C5.86823 37.6618 4.11704 35.7842 2.86715 33.6092C1.61727 31.4343 0.901092 29.0186 0.772291 26.543L0 5.88949C0 5.88949 4.22513 5.85497 5.10067 5.88949C8.51188 5.96128 11.857 4.9883 14.6425 3.11411L19.8563 0L25.1814 3.20662C28.0099 5.07076 31.0934 6.18377 34.5333 6.09259Z" transform="translate(5 2)" stroke="#F3930E" stroke-width="2"/>
<path d="M27.6266 4.7963H32L31.1557 20.9101C31.0476 22.852 30.473 24.7461 29.4747 26.4515C28.4764 28.1569 27.0801 29.6297 25.3897 30.7603L16.5151 36.5866C16.3309 36.7071 15.8856 37 15.8856 37C15.8856 37 15.4427 36.7071 15.2584 36.5866L6.39159 30.7821C4.69458 29.6487 3.29363 28.1705 2.29372 26.4583C1.29381 24.7462 0.720873 22.8444 0.617833 20.8955L0 4.63641C0 4.63641 3.3801 4.60924 4.08053 4.63641C6.8095 4.69292 9.48561 3.92696 11.714 2.45153L15.8851 0L20.1451 2.52436C22.4079 3.99187 24.8747 4.86807 27.6266 4.7963Z" transform="translate(9 7)" stroke="#404040" stroke-width="2"/>
<path d="M0.000546861 0H9.12178L4.72435 5.7064H4.85293C7.69553 5.7064 9.99988 8.01087 9.99973 10.8535V10.8535C9.99958 13.6959 7.69532 16 4.85293 16H0" transform="translate(20 17)" stroke="#404040" stroke-width="2"/>
</svg>
