<svg width="40" height="40" viewBox="0 0 40 40" fill="none" xmlns="http://www.w3.org/2000/svg">
<path d="M20.7199 3.62963H24L23.3668 15.8239C23.2857 17.2934 22.8547 18.7268 22.106 20.0174C21.3573 21.3079 20.3101 22.4224 19.0423 23.278L12.3863 27.6872C12.2482 27.7783 11.9142 28 11.9142 28C11.9142 28 11.582 27.7783 11.4438 27.6872L4.79369 23.2946C3.52094 22.4368 2.47022 21.3182 1.72029 20.0225C0.97036 18.7268 0.540655 17.2877 0.463375 15.8128L0 3.50863C0 3.50863 2.53508 3.48807 3.0604 3.50863C5.10712 3.5514 7.11421 2.97175 8.78552 1.85521L11.9138 0L15.1088 1.91033C16.8059 3.02088 18.656 3.68395 20.7199 3.62963Z" transform="translate(8 6.00195)" stroke="currentColor" stroke-width="2"/>
<path d="M3.07031 8.3125H4.27344C4.84635 8.3125 5.27083 8.16927 5.54688 7.88281C5.82292 7.59635 5.96094 7.21615 5.96094 6.74219C5.96094 6.28385 5.82292 5.92708 5.54688 5.67188C5.27604 5.41667 4.90104 5.28906 4.42188 5.28906C3.98958 5.28906 3.6276 5.40885 3.33594 5.64844C3.04427 5.88281 2.89844 6.1901 2.89844 6.57031H0.640625C0.640625 5.97656 0.799479 5.44531 1.11719 4.97656C1.4401 4.5026 1.88802 4.13281 2.46094 3.86719C3.03906 3.60156 3.67448 3.46875 4.36719 3.46875C5.57031 3.46875 6.51302 3.75781 7.19531 4.33594C7.8776 4.90885 8.21875 5.70052 8.21875 6.71094C8.21875 7.23177 8.0599 7.71094 7.74219 8.14844C7.42448 8.58594 7.00781 8.92188 6.49219 9.15625C7.13281 9.38542 7.60938 9.72917 7.92188 10.1875C8.23958 10.6458 8.39844 11.1875 8.39844 11.8125C8.39844 12.8229 8.02865 13.6328 7.28906 14.2422C6.55469 14.8516 5.58073 15.1562 4.36719 15.1562C3.23177 15.1562 2.30208 14.8568 1.57812 14.2578C0.859375 13.6589 0.5 12.8672 0.5 11.8828H2.75781C2.75781 12.3099 2.91667 12.6589 3.23438 12.9297C3.55729 13.2005 3.95312 13.3359 4.42188 13.3359C4.95833 13.3359 5.3776 13.1953 5.67969 12.9141C5.98698 12.6276 6.14062 12.25 6.14062 11.7812C6.14062 10.6458 5.51562 10.0781 4.26562 10.0781H3.07031V8.3125Z" transform="translate(15 10.002)" fill="currentColor"/>
</svg>
