<svg width="35" height="30" viewBox="0 0 35 30" fill="none" xmlns="http://www.w3.org/2000/svg">
<path d="M27.8475 -9.30928e-07H24.8286C24.7671 0.869597 24.5718 1.72465 24.2494 2.53527H27.8475C28.7299 2.53527 29.5762 2.88398 30.2001 3.50468C30.8241 4.12538 31.1747 4.96723 31.1747 5.84503C31.1747 6.72283 30.8241 7.56468 30.2001 8.18538C29.5762 8.80608 28.7299 9.15478 27.8475 9.15478H1.55972e-07V11.6901H27.8475C29.4058 11.6901 30.9004 11.0742 32.0023 9.97808C33.1042 8.88193 33.7233 7.39523 33.7233 5.84503C33.7233 4.29483 33.1042 2.80813 32.0023 1.71197C30.9004 0.615815 29.4058 -9.30928e-07 27.8475 -9.30928e-07Z" transform="translate(1.27539 18.3105)" fill="currentColor"/>
<path d="M31.1593 5.84672C31.1575 6.72118 30.8085 7.55952 30.1882 8.17913C29.5678 8.79874 28.7265 9.14942 27.8475 9.15478H21.1284C21.6633 9.96485 22.1982 10.8224 22.6889 11.6901H27.8475C29.4058 11.6901 30.9004 11.0742 32.0023 9.97809C33.1042 8.88193 33.7233 7.39522 33.7233 5.84503C33.7233 4.29483 33.1042 2.80812 32.0023 1.71197C30.9004 0.615814 29.4058 2.06873e-07 27.8475 2.06873e-07H1.55972e-07V2.53866H27.8475C28.7268 2.54314 29.5686 2.89353 30.1891 3.51333C30.8097 4.13313 31.1584 4.97199 31.1593 5.84672Z" transform="translate(1.27539)" fill="currentColor"/>
<path d="M5.8758 11.6901H9.46023C9.13792 10.8794 8.94257 10.0244 8.881 9.15478H5.8758C4.99338 9.15478 4.1471 8.80608 3.52313 8.18538C2.89917 7.56468 2.54862 6.72283 2.54862 5.84503C2.54862 4.96723 2.89917 4.12538 3.52313 3.50468C4.1471 2.88398 4.99338 2.53527 5.8758 2.53527H11.0208C11.5114 1.66759 12.0429 0.810067 12.5813 -3.62027e-07H5.8758C5.10418 -3.78203e-07 4.34012 0.151186 3.62723 0.444926C2.91435 0.738666 2.2666 1.16921 1.72098 1.71197C1.17536 2.25473 0.742556 2.89908 0.447269 3.60823C0.151982 4.31738 -6.15299e-09 5.07745 -6.15299e-09 5.84503C-6.15299e-09 6.61261 0.151982 7.37267 0.447269 8.08182C0.742556 8.79097 1.17536 9.43533 1.72098 9.97809C2.2666 10.5208 2.91435 10.9514 3.62723 11.2451C4.34012 11.5389 5.10418 11.6901 5.8758 11.6901Z" transform="translate(0 9.15234)" fill="currentColor"/>
<path d="M1.86792e-07 11.5648C1.86792e-07 13.2716 0.644869 14.9085 1.79274 16.1154C2.94062 17.3223 4.49747 18.0004 6.12081 18.0004C7.74415 18.0004 9.301 17.3223 10.4489 16.1154C11.5967 14.9085 12.2416 13.2716 12.2416 11.5648C12.2416 8.02519 6.12081 3.43698e-07 6.12081 3.43698e-07C6.12081 3.43698e-07 1.86792e-07 8.0091 1.86792e-07 11.5648Z" transform="translate(11.2207 6.00195)" fill="currentColor"/>
</svg>
