<svg width="236" height="23" viewBox="0 0 236 23" fill="none" xmlns="http://www.w3.org/2000/svg">
<path d="M0 0.32711H5.55645V9.03447H7.46613L13.9936 0.32711H19.6903V1.1388L11.9437 11.3642L20.2837 21.6949V22.338H13.9612L7.36903 13.7571H5.55645V22.338H0V0.32711Z" fill="#D3D4D7"/>
<path d="M39.6321 22.3401H45.264L36.7513 0.297597H30.1915L21.4738 22.3084H27.1058L28.9076 17.5858H37.8734L39.6321 22.3401ZM30.731 12.8526L33.4714 5.69489L36.1256 12.8526H30.731Z" fill="#D3D4D7"/>
<path d="M82.7322 22.3401H88.3641L79.8514 0.297597H73.2916L64.5739 22.3084H70.2059L72.0185 17.5858H80.9843L82.7322 22.3401ZM73.8311 12.8526L76.5715 5.69489L79.2257 12.8526H73.8311Z" fill="#D3D4D7"/>
<path d="M46.7721 22.338V0.32711H52.3394V17.6153H63.5709V22.338H46.7721Z" fill="#D3D4D7"/>
<path d="M91.9148 15.8039C94.028 17.1803 96.4968 17.9441 99.0357 18.0071C101.258 18.0071 102.65 17.2903 102.65 15.8988C102.65 14.929 101.927 14.3492 100.104 13.8959L96.4247 12.9261C92.5514 11.8719 90.6956 9.91119 90.6956 6.81196C90.6956 3.05916 93.6411 0.0442799 99.7046 0.0442799C102.507 0.0488703 105.274 0.645836 107.818 1.79419L106.264 6.47462C104.174 5.36617 101.845 4.75579 99.4673 4.69313C97.3094 4.69313 96.3492 5.36776 96.3492 6.443C96.3492 7.51824 97.0073 7.80287 98.3991 8.19291L102.402 9.32087C106.545 10.491 108.336 12.4833 108.336 15.5088C108.336 19.7254 104.527 22.6665 98.8954 22.6665C95.5927 22.6452 92.3571 21.7529 89.5304 20.0838L91.9148 15.8039Z" fill="#D3D4D7"/>
<path d="M125.745 13.5673H116.65V22.338H111.083V0.32711H116.65V8.8447H125.745V0.32711H131.313V22.338H125.745V13.5673Z" fill="#D3D4D7"/>
<path d="M141.004 8.97123V22.338H135.437V0.32711H140.281L150.175 13.6938V0.32711H155.742V22.338H150.898L141.004 8.97123Z" fill="#D3D4D7"/>
<path d="M165.429 0.327111H159.862V22.338H165.429V0.327111Z" fill="#D3D4D7"/>
<path d="M169.073 0.32711H174.64V9.03447H176.474L183.002 0.32711H188.698V1.1388L180.952 11.3642L189.292 21.6949V22.338H182.969L176.377 13.7571H174.64V22.338H169.073V0.32711Z" fill="#D3D4D7"/>
<path d="M200.289 0.002287C202.583 -0.00395902 204.827 0.654552 206.738 1.89455C208.649 3.13455 210.141 4.90033 211.024 6.96862C211.908 9.03691 212.144 11.3148 211.703 13.5142C211.262 15.7137 210.163 17.7359 208.546 19.3251C206.928 20.9144 204.864 21.9993 202.616 22.4427C200.367 22.8861 198.035 22.668 195.913 21.8161C193.791 20.9642 191.975 19.5167 190.696 17.6566C189.416 15.7965 188.729 13.6074 188.723 11.3661C188.683 9.86858 188.955 8.37873 189.521 6.98664C190.088 5.59455 190.937 4.32913 192.018 3.26691C193.099 2.20468 194.39 1.3677 195.811 0.806579C197.233 0.245454 198.756 -0.0281477 200.289 0.002287ZM200.289 17.5435C201.553 17.5855 202.8 17.2577 203.872 16.6022C204.943 15.9467 205.79 14.9933 206.303 13.8644C206.816 12.7355 206.972 11.4826 206.751 10.2663C206.531 9.05007 205.943 7.92601 205.064 7.03834C204.185 6.15066 203.054 5.53984 201.817 5.28428C200.58 5.02871 199.294 5.14005 198.122 5.60399C196.95 6.06792 195.947 6.86332 195.241 7.88812C194.536 8.91291 194.159 10.1204 194.161 11.3556C194.118 12.1623 194.245 12.9691 194.535 13.7256C194.825 14.4821 195.271 15.1722 195.846 15.7527C196.421 16.3333 197.113 16.7919 197.877 17.1C198.641 17.4081 199.462 17.5591 200.289 17.5435Z" fill="#D3D4D7"/>
<path d="M211.238 0.32711H217.334L223.257 17.162L229.397 0.32711H235.482L226.807 22.338H219.751L211.238 0.32711Z" fill="#D3D4D7"/>
</svg>
